%TF.GenerationSoftware,KiCad,Pcbnew,8.0.4*%
%TF.CreationDate,2024-07-28T19:43:17+02:00*%
%TF.ProjectId,Teensy_Custom_Board,5465656e-7379-45f4-9375-73746f6d5f42,1.0*%
%TF.SameCoordinates,Original*%
%TF.FileFunction,Soldermask,Bot*%
%TF.FilePolarity,Negative*%
%FSLAX46Y46*%
G04 Gerber Fmt 4.6, Leading zero omitted, Abs format (unit mm)*
G04 Created by KiCad (PCBNEW 8.0.4) date 2024-07-28 19:43:17*
%MOMM*%
%LPD*%
G01*
G04 APERTURE LIST*
%ADD10C,4.300000*%
%ADD11C,1.600000*%
%ADD12O,1.600000X1.600000*%
%ADD13R,1.700000X1.700000*%
%ADD14O,1.700000X1.700000*%
%ADD15C,1.300000*%
%ADD16R,1.300000X1.300000*%
%ADD17R,1.600000X1.600000*%
%ADD18C,3.250000*%
%ADD19C,1.890000*%
%ADD20R,1.900000X1.900000*%
%ADD21C,1.900000*%
%ADD22C,2.600000*%
G04 APERTURE END LIST*
D10*
%TO.C,REF\u002A\u002A*%
X171500000Y-99700000D03*
%TD*%
%TO.C,REF\u002A\u002A*%
X171500000Y-42800000D03*
%TD*%
%TO.C,REF\u002A\u002A*%
X119700000Y-42800000D03*
%TD*%
%TO.C,REF\u002A\u002A*%
X119700000Y-99700000D03*
%TD*%
D11*
%TO.C,C1*%
X130950000Y-79500000D03*
D12*
X138450000Y-79500000D03*
%TD*%
D13*
%TO.C,J5*%
X163700000Y-92520000D03*
D14*
X163700000Y-89980000D03*
X163700000Y-87440000D03*
X163700000Y-84900000D03*
%TD*%
D15*
%TO.C,U1*%
X152950000Y-102229200D03*
X150410000Y-102229200D03*
X146498400Y-87989200D03*
X148498400Y-87989200D03*
X150498400Y-87989200D03*
X150498400Y-89989200D03*
X148498400Y-89989200D03*
D16*
X146498400Y-89989200D03*
D11*
X156249200Y-86500000D03*
X156249200Y-89040000D03*
X156249200Y-91580000D03*
X156249200Y-94120000D03*
D17*
X156249200Y-96660000D03*
D11*
X146600000Y-57239200D03*
X149140000Y-57239200D03*
X151680000Y-57239200D03*
X154220000Y-57239200D03*
X156760000Y-57239200D03*
X146600000Y-100419200D03*
X144060000Y-102959200D03*
X144060000Y-100419200D03*
X144060000Y-97879200D03*
X144060000Y-95339200D03*
X144060000Y-92799200D03*
X144060000Y-90259200D03*
X144060000Y-87719200D03*
X144060000Y-85179200D03*
X144060000Y-82639200D03*
X144060000Y-80099200D03*
X144060000Y-77559200D03*
X144060000Y-75019200D03*
X144060000Y-72479200D03*
X144060000Y-69939200D03*
X144060000Y-67399200D03*
X144060000Y-64859200D03*
X144060000Y-62319200D03*
X144060000Y-59779200D03*
X144060000Y-57239200D03*
X144060000Y-54699200D03*
X144060000Y-52159200D03*
X144060000Y-49619200D03*
X144060000Y-47079200D03*
X144060000Y-44539200D03*
X159300000Y-44539200D03*
X159300000Y-47079200D03*
X159300000Y-49619200D03*
X159300000Y-52159200D03*
X159300000Y-54699200D03*
X159300000Y-57239200D03*
X159300000Y-59779200D03*
X159300000Y-62319200D03*
X159300000Y-64859200D03*
X159300000Y-67399200D03*
X159300000Y-69939200D03*
X159300000Y-72479200D03*
X159300000Y-75019200D03*
X159300000Y-77559200D03*
X159300000Y-80099200D03*
X159300000Y-82639200D03*
X159300000Y-85179200D03*
X159300000Y-87719200D03*
X159300000Y-90259200D03*
X159300000Y-92799200D03*
X159300000Y-95339200D03*
X159300000Y-97879200D03*
X159300000Y-100419200D03*
D17*
X159300000Y-102959200D03*
%TD*%
D13*
%TO.C,J3*%
X142900000Y-40800000D03*
D14*
X145440000Y-40800000D03*
X147980000Y-40800000D03*
X150520000Y-40800000D03*
%TD*%
D18*
%TO.C,J1*%
X127460000Y-92800000D03*
X138890000Y-92800000D03*
D19*
X139500000Y-96180000D03*
X136960000Y-97700000D03*
X129390000Y-96180000D03*
X126850000Y-97700000D03*
D20*
X128730000Y-86460000D03*
D21*
X130000000Y-83920000D03*
X131270000Y-86460000D03*
X132540000Y-83920000D03*
X133810000Y-86460000D03*
X135080000Y-83920000D03*
X136350000Y-86460000D03*
X137620000Y-83920000D03*
D22*
X125400000Y-89750000D03*
X140950000Y-89750000D03*
%TD*%
D13*
%TO.C,J4*%
X163700000Y-102325000D03*
D14*
X163700000Y-99785000D03*
X163700000Y-97245000D03*
%TD*%
D13*
%TO.C,J2*%
X163400000Y-68580000D03*
D14*
X163400000Y-66040000D03*
X163400000Y-63500000D03*
X163400000Y-60960000D03*
%TD*%
M02*
