%TF.GenerationSoftware,KiCad,Pcbnew,8.0.4*%
%TF.CreationDate,2024-07-28T19:43:17+02:00*%
%TF.ProjectId,Teensy_Custom_Board,5465656e-7379-45f4-9375-73746f6d5f42,1.0*%
%TF.SameCoordinates,Original*%
%TF.FileFunction,Copper,L2,Bot*%
%TF.FilePolarity,Positive*%
%FSLAX46Y46*%
G04 Gerber Fmt 4.6, Leading zero omitted, Abs format (unit mm)*
G04 Created by KiCad (PCBNEW 8.0.4) date 2024-07-28 19:43:17*
%MOMM*%
%LPD*%
G01*
G04 APERTURE LIST*
%TA.AperFunction,ComponentPad*%
%ADD10C,1.600000*%
%TD*%
%TA.AperFunction,ComponentPad*%
%ADD11O,1.600000X1.600000*%
%TD*%
%TA.AperFunction,ComponentPad*%
%ADD12R,1.700000X1.700000*%
%TD*%
%TA.AperFunction,ComponentPad*%
%ADD13O,1.700000X1.700000*%
%TD*%
%TA.AperFunction,ComponentPad*%
%ADD14C,1.300000*%
%TD*%
%TA.AperFunction,ComponentPad*%
%ADD15R,1.300000X1.300000*%
%TD*%
%TA.AperFunction,ComponentPad*%
%ADD16R,1.600000X1.600000*%
%TD*%
%TA.AperFunction,ComponentPad*%
%ADD17C,1.890000*%
%TD*%
%TA.AperFunction,ComponentPad*%
%ADD18R,1.900000X1.900000*%
%TD*%
%TA.AperFunction,ComponentPad*%
%ADD19C,1.900000*%
%TD*%
%TA.AperFunction,ComponentPad*%
%ADD20C,2.600000*%
%TD*%
%TA.AperFunction,Conductor*%
%ADD21C,0.300000*%
%TD*%
%TA.AperFunction,Conductor*%
%ADD22C,0.500000*%
%TD*%
G04 APERTURE END LIST*
D10*
%TO.P,C1,1*%
%TO.N,Net-(J1-RCT)*%
X130950000Y-79500000D03*
D11*
%TO.P,C1,2*%
%TO.N,GND*%
X138450000Y-79500000D03*
%TD*%
D12*
%TO.P,J5,1,Pin_1*%
%TO.N,Net-(J4-Pin_2)*%
X163700000Y-92520000D03*
D13*
%TO.P,J5,2,Pin_2*%
%TO.N,GND*%
X163700000Y-89980000D03*
%TO.P,J5,3,Pin_3*%
%TO.N,Net-(J5-Pin_3)*%
X163700000Y-87440000D03*
%TO.P,J5,4,Pin_4*%
%TO.N,Net-(J5-Pin_4)*%
X163700000Y-84900000D03*
%TD*%
D14*
%TO.P,U1,67,D+*%
%TO.N,unconnected-(U1-D+-Pad67)*%
X152950000Y-102229200D03*
%TO.P,U1,66,D-*%
%TO.N,unconnected-(U1-D--Pad66)*%
X150410000Y-102229200D03*
%TO.P,U1,65,R-*%
%TO.N,Net-(J1-RD-)*%
X146498400Y-87989200D03*
%TO.P,U1,64,GND*%
%TO.N,GND*%
X148498400Y-87989200D03*
%TO.P,U1,63,T+*%
%TO.N,Net-(J1-TD+)*%
X150498400Y-87989200D03*
%TO.P,U1,62,T-*%
%TO.N,Net-(J1-TD-)*%
X150498400Y-89989200D03*
%TO.P,U1,61,LED*%
%TO.N,Net-(U1-LED)*%
X148498400Y-89989200D03*
D15*
%TO.P,U1,60,R+*%
%TO.N,Net-(J1-RD+)*%
X146498400Y-89989200D03*
D10*
%TO.P,U1,59,GND*%
%TO.N,unconnected-(U1-GND-Pad59)*%
X156249200Y-86500000D03*
%TO.P,U1,58,GND*%
%TO.N,unconnected-(U1-GND-Pad58)*%
X156249200Y-89040000D03*
%TO.P,U1,57,D+*%
%TO.N,unconnected-(U1-D+-Pad57)*%
X156249200Y-91580000D03*
%TO.P,U1,56,D-*%
%TO.N,unconnected-(U1-D--Pad56)*%
X156249200Y-94120000D03*
D16*
%TO.P,U1,55,5V*%
%TO.N,unconnected-(U1-5V-Pad55)*%
X156249200Y-96660000D03*
D10*
%TO.P,U1,54,ON_OFF*%
%TO.N,unconnected-(U1-ON_OFF-Pad54)*%
X146600000Y-57239200D03*
%TO.P,U1,53,PROGRAM*%
%TO.N,unconnected-(U1-PROGRAM-Pad53)*%
X149140000Y-57239200D03*
%TO.P,U1,52,GND*%
%TO.N,unconnected-(U1-GND-Pad52)*%
X151680000Y-57239200D03*
%TO.P,U1,51,3V3*%
%TO.N,unconnected-(U1-3V3-Pad51)*%
X154220000Y-57239200D03*
%TO.P,U1,50,VBAT*%
%TO.N,unconnected-(U1-VBAT-Pad50)*%
X156760000Y-57239200D03*
%TO.P,U1,49,VUSB*%
%TO.N,Net-(J4-Pin_3)*%
X146600000Y-100419200D03*
%TO.P,U1,48,VIN*%
%TO.N,Net-(J4-Pin_2)*%
X144060000Y-102959200D03*
%TO.P,U1,47,GND*%
%TO.N,GND*%
X144060000Y-100419200D03*
%TO.P,U1,46,3V3*%
%TO.N,Net-(J2-Pin_4)*%
X144060000Y-97879200D03*
%TO.P,U1,45,23_A9_CRX1_MCLK1*%
%TO.N,unconnected-(U1-23_A9_CRX1_MCLK1-Pad45)*%
X144060000Y-95339200D03*
%TO.P,U1,44,22_A8_CTX1*%
%TO.N,unconnected-(U1-22_A8_CTX1-Pad44)*%
X144060000Y-92799200D03*
%TO.P,U1,43,21_A7_RX5_BCLK1*%
%TO.N,unconnected-(U1-21_A7_RX5_BCLK1-Pad43)*%
X144060000Y-90259200D03*
%TO.P,U1,42,20_A6_TX5_LRCLK1*%
%TO.N,unconnected-(U1-20_A6_TX5_LRCLK1-Pad42)*%
X144060000Y-87719200D03*
%TO.P,U1,41,19_A5_SCL*%
%TO.N,Net-(J2-Pin_1)*%
X144060000Y-85179200D03*
%TO.P,U1,40,18_A4_SDA*%
%TO.N,Net-(J2-Pin_2)*%
X144060000Y-82639200D03*
%TO.P,U1,39,17_A3_TX4_SDA1*%
%TO.N,unconnected-(U1-17_A3_TX4_SDA1-Pad39)*%
X144060000Y-80099200D03*
%TO.P,U1,38,16_A2_RX4_SCL1*%
%TO.N,unconnected-(U1-16_A2_RX4_SCL1-Pad38)*%
X144060000Y-77559200D03*
%TO.P,U1,37,15_A1_RX3_SPDIF_IN*%
%TO.N,unconnected-(U1-15_A1_RX3_SPDIF_IN-Pad37)*%
X144060000Y-75019200D03*
%TO.P,U1,36,14_A0_TX3_SPDIF_OUT*%
%TO.N,unconnected-(U1-14_A0_TX3_SPDIF_OUT-Pad36)*%
X144060000Y-72479200D03*
%TO.P,U1,35,13_SCK_LED*%
%TO.N,unconnected-(U1-13_SCK_LED-Pad35)*%
X144060000Y-69939200D03*
%TO.P,U1,34,GND*%
%TO.N,GND*%
X144060000Y-67399200D03*
%TO.P,U1,33,41_A17*%
%TO.N,unconnected-(U1-41_A17-Pad33)*%
X144060000Y-64859200D03*
%TO.P,U1,32,40_A16*%
%TO.N,unconnected-(U1-40_A16-Pad32)*%
X144060000Y-62319200D03*
%TO.P,U1,31,39_MISO1_OUT1A*%
%TO.N,unconnected-(U1-39_MISO1_OUT1A-Pad31)*%
X144060000Y-59779200D03*
%TO.P,U1,30,38_CS1_IN1*%
%TO.N,unconnected-(U1-38_CS1_IN1-Pad30)*%
X144060000Y-57239200D03*
%TO.P,U1,29,37_CS*%
%TO.N,unconnected-(U1-37_CS-Pad29)*%
X144060000Y-54699200D03*
%TO.P,U1,28,36_CS*%
%TO.N,unconnected-(U1-36_CS-Pad28)*%
X144060000Y-52159200D03*
%TO.P,U1,27,35_TX8*%
%TO.N,unconnected-(U1-35_TX8-Pad27)*%
X144060000Y-49619200D03*
%TO.P,U1,26,34_RX8*%
%TO.N,unconnected-(U1-34_RX8-Pad26)*%
X144060000Y-47079200D03*
%TO.P,U1,25,33_MCLK2*%
%TO.N,unconnected-(U1-33_MCLK2-Pad25)*%
X144060000Y-44539200D03*
%TO.P,U1,24,32_OUT1B*%
%TO.N,unconnected-(U1-32_OUT1B-Pad24)*%
X159300000Y-44539200D03*
%TO.P,U1,23,31_CTX3*%
%TO.N,unconnected-(U1-31_CTX3-Pad23)*%
X159300000Y-47079200D03*
%TO.P,U1,22,30_CRX3*%
%TO.N,unconnected-(U1-30_CRX3-Pad22)*%
X159300000Y-49619200D03*
%TO.P,U1,21,29_TX7*%
%TO.N,unconnected-(U1-29_TX7-Pad21)*%
X159300000Y-52159200D03*
%TO.P,U1,20,28_RX7*%
%TO.N,unconnected-(U1-28_RX7-Pad20)*%
X159300000Y-54699200D03*
%TO.P,U1,19,27_A13_SCK1*%
%TO.N,unconnected-(U1-27_A13_SCK1-Pad19)*%
X159300000Y-57239200D03*
%TO.P,U1,18,26_A12_MOSI1*%
%TO.N,unconnected-(U1-26_A12_MOSI1-Pad18)*%
X159300000Y-59779200D03*
%TO.P,U1,17,25_A11_RX6_SDA2*%
%TO.N,unconnected-(U1-25_A11_RX6_SDA2-Pad17)*%
X159300000Y-62319200D03*
%TO.P,U1,16,24_A10_TX6_SCL2*%
%TO.N,unconnected-(U1-24_A10_TX6_SCL2-Pad16)*%
X159300000Y-64859200D03*
%TO.P,U1,15,3V3*%
%TO.N,unconnected-(U1-3V3-Pad15)*%
X159300000Y-67399200D03*
%TO.P,U1,14,12_MISO_MQSL*%
%TO.N,unconnected-(U1-12_MISO_MQSL-Pad14)*%
X159300000Y-69939200D03*
%TO.P,U1,13,11_MOSI_CTX1*%
%TO.N,unconnected-(U1-11_MOSI_CTX1-Pad13)*%
X159300000Y-72479200D03*
%TO.P,U1,12,10_CS_MQSR*%
%TO.N,unconnected-(U1-10_CS_MQSR-Pad12)*%
X159300000Y-75019200D03*
%TO.P,U1,11,9_OUT1C*%
%TO.N,unconnected-(U1-9_OUT1C-Pad11)*%
X159300000Y-77559200D03*
%TO.P,U1,10,8_TX2_IN1*%
%TO.N,unconnected-(U1-8_TX2_IN1-Pad10)*%
X159300000Y-80099200D03*
%TO.P,U1,9,7_RX2_OUT1A*%
%TO.N,unconnected-(U1-7_RX2_OUT1A-Pad9)*%
X159300000Y-82639200D03*
%TO.P,U1,8,6_OUT1D*%
%TO.N,unconnected-(U1-6_OUT1D-Pad8)*%
X159300000Y-85179200D03*
%TO.P,U1,7,5_IN2*%
%TO.N,unconnected-(U1-5_IN2-Pad7)*%
X159300000Y-87719200D03*
%TO.P,U1,6,4_BCLK2*%
%TO.N,unconnected-(U1-4_BCLK2-Pad6)*%
X159300000Y-90259200D03*
%TO.P,U1,5,3_LRCLK2*%
%TO.N,unconnected-(U1-3_LRCLK2-Pad5)*%
X159300000Y-92799200D03*
%TO.P,U1,4,2_OUT2*%
%TO.N,unconnected-(U1-2_OUT2-Pad4)*%
X159300000Y-95339200D03*
%TO.P,U1,3,1_TX1_CTX2_MISO1*%
%TO.N,Net-(J5-Pin_4)*%
X159300000Y-97879200D03*
%TO.P,U1,2,0_RX1_CRX2_CS1*%
%TO.N,Net-(J5-Pin_3)*%
X159300000Y-100419200D03*
D16*
%TO.P,U1,1,GND*%
%TO.N,GND*%
X159300000Y-102959200D03*
%TD*%
D12*
%TO.P,J3,1,Pin_1*%
%TO.N,Net-(J2-Pin_1)*%
X142900000Y-40800000D03*
D13*
%TO.P,J3,2,Pin_2*%
%TO.N,Net-(J2-Pin_2)*%
X145440000Y-40800000D03*
%TO.P,J3,3,Pin_3*%
%TO.N,GND*%
X147980000Y-40800000D03*
%TO.P,J3,4,Pin_4*%
%TO.N,Net-(J2-Pin_4)*%
X150520000Y-40800000D03*
%TD*%
D17*
%TO.P,J1,L1*%
%TO.N,Net-(U1-LED)*%
X139500000Y-96180000D03*
%TO.P,J1,L2*%
%TO.N,GND*%
X136960000Y-97700000D03*
%TO.P,J1,L3*%
%TO.N,unconnected-(J1-PadL3)*%
X129390000Y-96180000D03*
%TO.P,J1,L4*%
%TO.N,unconnected-(J1-PadL4)*%
X126850000Y-97700000D03*
D18*
%TO.P,J1,R1,TD+*%
%TO.N,Net-(J1-TD+)*%
X128730000Y-86460000D03*
D19*
%TO.P,J1,R2,TD-*%
%TO.N,Net-(J1-TD-)*%
X130000000Y-83920000D03*
%TO.P,J1,R3,RD+*%
%TO.N,Net-(J1-RD+)*%
X131270000Y-86460000D03*
%TO.P,J1,R4,TCT*%
%TO.N,Net-(J1-RCT)*%
X132540000Y-83920000D03*
%TO.P,J1,R5,RCT*%
X133810000Y-86460000D03*
%TO.P,J1,R6,RD-*%
%TO.N,Net-(J1-RD-)*%
X135080000Y-83920000D03*
%TO.P,J1,R7,NC*%
%TO.N,unconnected-(J1-NC-PadR7)*%
X136350000Y-86460000D03*
%TO.P,J1,R8*%
%TO.N,GND*%
X137620000Y-83920000D03*
D20*
%TO.P,J1,SH*%
X125400000Y-89750000D03*
X140950000Y-89750000D03*
%TD*%
D12*
%TO.P,J4,1,Pin_1*%
%TO.N,GND*%
X163700000Y-102325000D03*
D13*
%TO.P,J4,2,Pin_2*%
%TO.N,Net-(J4-Pin_2)*%
X163700000Y-99785000D03*
%TO.P,J4,3,Pin_3*%
%TO.N,Net-(J4-Pin_3)*%
X163700000Y-97245000D03*
%TD*%
D12*
%TO.P,J2,1,Pin_1*%
%TO.N,Net-(J2-Pin_1)*%
X163400000Y-68580000D03*
D13*
%TO.P,J2,2,Pin_2*%
%TO.N,Net-(J2-Pin_2)*%
X163400000Y-66040000D03*
%TO.P,J2,3,Pin_3*%
%TO.N,GND*%
X163400000Y-63500000D03*
%TO.P,J2,4,Pin_4*%
%TO.N,Net-(J2-Pin_4)*%
X163400000Y-60960000D03*
%TD*%
D21*
%TO.N,Net-(U1-LED)*%
X144538400Y-93949200D02*
X148498400Y-89989200D01*
X141730800Y-93949200D02*
X144538400Y-93949200D01*
X139500000Y-96180000D02*
X141730800Y-93949200D01*
%TO.N,Net-(J2-Pin_1)*%
X155439200Y-73800000D02*
X144060000Y-85179200D01*
X163400000Y-70005546D02*
X159605546Y-73800000D01*
X159605546Y-73800000D02*
X155439200Y-73800000D01*
X163400000Y-68580000D02*
X163400000Y-70005546D01*
%TO.N,Net-(J2-Pin_2)*%
X155399200Y-71300000D02*
X144060000Y-82639200D01*
X160450000Y-70415546D02*
X159565546Y-71300000D01*
X159565546Y-71300000D02*
X155399200Y-71300000D01*
X160450000Y-68990000D02*
X160450000Y-70415546D01*
X163400000Y-66040000D02*
X160450000Y-68990000D01*
D22*
%TO.N,Net-(J4-Pin_2)*%
X161785000Y-101700000D02*
X163700000Y-99785000D01*
X158059200Y-101700000D02*
X161785000Y-101700000D01*
X156430000Y-103329200D02*
X158059200Y-101700000D01*
X151850000Y-102684835D02*
X152494365Y-103329200D01*
X152494365Y-103329200D02*
X156430000Y-103329200D01*
X151850000Y-102113565D02*
X151850000Y-102684835D01*
X149954365Y-101129200D02*
X150865635Y-101129200D01*
X150865635Y-101129200D02*
X151850000Y-102113565D01*
X148124365Y-102959200D02*
X149954365Y-101129200D01*
X144060000Y-102959200D02*
X148124365Y-102959200D01*
%TO.N,Net-(J4-Pin_3)*%
X161815800Y-99129200D02*
X163700000Y-97245000D01*
X156282233Y-99129200D02*
X161815800Y-99129200D01*
X154992233Y-100419200D02*
X156282233Y-99129200D01*
X146600000Y-100419200D02*
X154992233Y-100419200D01*
%TD*%
%TA.AperFunction,Conductor*%
%TO.N,GND*%
G36*
X176042539Y-38220185D02*
G01*
X176088294Y-38272989D01*
X176099500Y-38324500D01*
X176099500Y-104175500D01*
X176079815Y-104242539D01*
X176027011Y-104288294D01*
X175975500Y-104299500D01*
X160567834Y-104299500D01*
X160500795Y-104279815D01*
X160455040Y-104227011D01*
X160445096Y-104157853D01*
X160468568Y-104101188D01*
X160543352Y-104001289D01*
X160543354Y-104001286D01*
X160593596Y-103866579D01*
X160593598Y-103866572D01*
X160599999Y-103807044D01*
X160600000Y-103807027D01*
X160600000Y-103209200D01*
X159790748Y-103209200D01*
X159812518Y-103171492D01*
X159850000Y-103031609D01*
X159850000Y-102886791D01*
X159812518Y-102746908D01*
X159790748Y-102709200D01*
X160600000Y-102709200D01*
X160600000Y-102574500D01*
X160619685Y-102507461D01*
X160672489Y-102461706D01*
X160724000Y-102450500D01*
X161858920Y-102450500D01*
X161956462Y-102431096D01*
X162003913Y-102421658D01*
X162140495Y-102365084D01*
X162157107Y-102353983D01*
X162223785Y-102333105D01*
X162291165Y-102351588D01*
X162337856Y-102403566D01*
X162350000Y-102457085D01*
X162350000Y-103222844D01*
X162356401Y-103282372D01*
X162356403Y-103282379D01*
X162406645Y-103417086D01*
X162406649Y-103417093D01*
X162492809Y-103532187D01*
X162492812Y-103532190D01*
X162607906Y-103618350D01*
X162607913Y-103618354D01*
X162742620Y-103668596D01*
X162742627Y-103668598D01*
X162802155Y-103674999D01*
X162802172Y-103675000D01*
X163450000Y-103675000D01*
X163450000Y-102758012D01*
X163507007Y-102790925D01*
X163634174Y-102825000D01*
X163765826Y-102825000D01*
X163892993Y-102790925D01*
X163950000Y-102758012D01*
X163950000Y-103675000D01*
X164597828Y-103675000D01*
X164597844Y-103674999D01*
X164657372Y-103668598D01*
X164657379Y-103668596D01*
X164792086Y-103618354D01*
X164792093Y-103618350D01*
X164907187Y-103532190D01*
X164907190Y-103532187D01*
X164993350Y-103417093D01*
X164993354Y-103417086D01*
X165043596Y-103282379D01*
X165043598Y-103282372D01*
X165049999Y-103222844D01*
X165050000Y-103222827D01*
X165050000Y-102575000D01*
X164133012Y-102575000D01*
X164165925Y-102517993D01*
X164200000Y-102390826D01*
X164200000Y-102259174D01*
X164165925Y-102132007D01*
X164133012Y-102075000D01*
X165050000Y-102075000D01*
X165050000Y-101427172D01*
X165049999Y-101427155D01*
X165043598Y-101367627D01*
X165043596Y-101367620D01*
X164993354Y-101232913D01*
X164993350Y-101232906D01*
X164907190Y-101117812D01*
X164907187Y-101117809D01*
X164792093Y-101031649D01*
X164792088Y-101031646D01*
X164660528Y-100982577D01*
X164604595Y-100940705D01*
X164580178Y-100875241D01*
X164595030Y-100806968D01*
X164616175Y-100778720D01*
X164738495Y-100656401D01*
X164874035Y-100462830D01*
X164973903Y-100248663D01*
X165035063Y-100020408D01*
X165055659Y-99785000D01*
X165054037Y-99766466D01*
X165043868Y-99650236D01*
X165036427Y-99565186D01*
X169099500Y-99565186D01*
X169099500Y-99834813D01*
X169129686Y-100102719D01*
X169129688Y-100102731D01*
X169189684Y-100365594D01*
X169189687Y-100365602D01*
X169278734Y-100620082D01*
X169395714Y-100862994D01*
X169395716Y-100862997D01*
X169539162Y-101091289D01*
X169707266Y-101302085D01*
X169897915Y-101492734D01*
X170108711Y-101660838D01*
X170332262Y-101801305D01*
X170337005Y-101804285D01*
X170352625Y-101811807D01*
X170579921Y-101921267D01*
X170771049Y-101988145D01*
X170834397Y-102010312D01*
X170834405Y-102010315D01*
X170834408Y-102010315D01*
X170834409Y-102010316D01*
X171097268Y-102070312D01*
X171365187Y-102100499D01*
X171365188Y-102100500D01*
X171365191Y-102100500D01*
X171634812Y-102100500D01*
X171634812Y-102100499D01*
X171902732Y-102070312D01*
X172165591Y-102010316D01*
X172420079Y-101921267D01*
X172662997Y-101804284D01*
X172891289Y-101660838D01*
X173102085Y-101492734D01*
X173292734Y-101302085D01*
X173460838Y-101091289D01*
X173604284Y-100862997D01*
X173721267Y-100620079D01*
X173810316Y-100365591D01*
X173870312Y-100102732D01*
X173900500Y-99834809D01*
X173900500Y-99565191D01*
X173870312Y-99297268D01*
X173810316Y-99034409D01*
X173808173Y-99028286D01*
X173768131Y-98913852D01*
X173721267Y-98779921D01*
X173604284Y-98537003D01*
X173460838Y-98308711D01*
X173292734Y-98097915D01*
X173102085Y-97907266D01*
X172891289Y-97739162D01*
X172662997Y-97595716D01*
X172662994Y-97595714D01*
X172420082Y-97478734D01*
X172165602Y-97389687D01*
X172165594Y-97389684D01*
X171965047Y-97343911D01*
X171902732Y-97329688D01*
X171902728Y-97329687D01*
X171902719Y-97329686D01*
X171634813Y-97299500D01*
X171634809Y-97299500D01*
X171365191Y-97299500D01*
X171365186Y-97299500D01*
X171097280Y-97329686D01*
X171097268Y-97329688D01*
X170834405Y-97389684D01*
X170834397Y-97389687D01*
X170579917Y-97478734D01*
X170337005Y-97595714D01*
X170108712Y-97739161D01*
X169897915Y-97907265D01*
X169707265Y-98097915D01*
X169539161Y-98308712D01*
X169395714Y-98537005D01*
X169278734Y-98779917D01*
X169189687Y-99034397D01*
X169189684Y-99034405D01*
X169129688Y-99297268D01*
X169129686Y-99297280D01*
X169099500Y-99565186D01*
X165036427Y-99565186D01*
X165035063Y-99549592D01*
X164973903Y-99321337D01*
X164874035Y-99107171D01*
X164873264Y-99106069D01*
X164738494Y-98913597D01*
X164571402Y-98746506D01*
X164571396Y-98746501D01*
X164385842Y-98616575D01*
X164342217Y-98561998D01*
X164335023Y-98492500D01*
X164366546Y-98430145D01*
X164385842Y-98413425D01*
X164463547Y-98359015D01*
X164571401Y-98283495D01*
X164738495Y-98116401D01*
X164874035Y-97922830D01*
X164973903Y-97708663D01*
X165035063Y-97480408D01*
X165055659Y-97245000D01*
X165054262Y-97229038D01*
X165040425Y-97070883D01*
X165035063Y-97009592D01*
X164981346Y-96809116D01*
X164973905Y-96781344D01*
X164973904Y-96781343D01*
X164973903Y-96781337D01*
X164874035Y-96567171D01*
X164873173Y-96565939D01*
X164738494Y-96373597D01*
X164571402Y-96206506D01*
X164571395Y-96206501D01*
X164377834Y-96070967D01*
X164377830Y-96070965D01*
X164377828Y-96070964D01*
X164163663Y-95971097D01*
X164163659Y-95971096D01*
X164163655Y-95971094D01*
X163935413Y-95909938D01*
X163935403Y-95909936D01*
X163700001Y-95889341D01*
X163699999Y-95889341D01*
X163464596Y-95909936D01*
X163464586Y-95909938D01*
X163236344Y-95971094D01*
X163236335Y-95971098D01*
X163022171Y-96070964D01*
X163022169Y-96070965D01*
X162828597Y-96206505D01*
X162661505Y-96373597D01*
X162525965Y-96567169D01*
X162525964Y-96567171D01*
X162426098Y-96781335D01*
X162426094Y-96781344D01*
X162364938Y-97009586D01*
X162364936Y-97009596D01*
X162344341Y-97244999D01*
X162344341Y-97245001D01*
X162362977Y-97458013D01*
X162349210Y-97526513D01*
X162327130Y-97556501D01*
X161541251Y-98342381D01*
X161479928Y-98375866D01*
X161453570Y-98378700D01*
X160674137Y-98378700D01*
X160607098Y-98359015D01*
X160561343Y-98306211D01*
X160551399Y-98237053D01*
X160554362Y-98222607D01*
X160575156Y-98145000D01*
X160585635Y-98105892D01*
X160605468Y-97879200D01*
X160604817Y-97871764D01*
X160599801Y-97814430D01*
X160585635Y-97652508D01*
X160534388Y-97461251D01*
X160526741Y-97432711D01*
X160526738Y-97432702D01*
X160485334Y-97343911D01*
X160430568Y-97226466D01*
X160300047Y-97040061D01*
X160300045Y-97040058D01*
X160139141Y-96879154D01*
X159952734Y-96748632D01*
X159952728Y-96748629D01*
X159894725Y-96721582D01*
X159842285Y-96675410D01*
X159823133Y-96608217D01*
X159843348Y-96541335D01*
X159894725Y-96496818D01*
X159952734Y-96469768D01*
X160139139Y-96339247D01*
X160300047Y-96178339D01*
X160430568Y-95991934D01*
X160526739Y-95785696D01*
X160585635Y-95565892D01*
X160603692Y-95359500D01*
X160605468Y-95339201D01*
X160605468Y-95339198D01*
X160588748Y-95148092D01*
X160585635Y-95112508D01*
X160526739Y-94892704D01*
X160430568Y-94686466D01*
X160300047Y-94500061D01*
X160300045Y-94500058D01*
X160139141Y-94339154D01*
X159952734Y-94208632D01*
X159952728Y-94208629D01*
X159894725Y-94181582D01*
X159842285Y-94135410D01*
X159823133Y-94068217D01*
X159843348Y-94001335D01*
X159894725Y-93956818D01*
X159952734Y-93929768D01*
X160139139Y-93799247D01*
X160300047Y-93638339D01*
X160430568Y-93451934D01*
X160526739Y-93245696D01*
X160585635Y-93025892D01*
X160605468Y-92799200D01*
X160585635Y-92572508D01*
X160526739Y-92352704D01*
X160430568Y-92146466D01*
X160300047Y-91960061D01*
X160300045Y-91960058D01*
X160139141Y-91799154D01*
X159952734Y-91668632D01*
X159952728Y-91668629D01*
X159894725Y-91641582D01*
X159842285Y-91595410D01*
X159823133Y-91528217D01*
X159843348Y-91461335D01*
X159894725Y-91416818D01*
X159952734Y-91389768D01*
X160139139Y-91259247D01*
X160300047Y-91098339D01*
X160430568Y-90911934D01*
X160526739Y-90705696D01*
X160585635Y-90485892D01*
X160605468Y-90259200D01*
X160585635Y-90032508D01*
X160526739Y-89812704D01*
X160430568Y-89606466D01*
X160300047Y-89420061D01*
X160300045Y-89420058D01*
X160139141Y-89259154D01*
X159952734Y-89128632D01*
X159952728Y-89128629D01*
X159925038Y-89115717D01*
X159894724Y-89101581D01*
X159842285Y-89055410D01*
X159823133Y-88988217D01*
X159843348Y-88921335D01*
X159894725Y-88876818D01*
X159952734Y-88849768D01*
X160139139Y-88719247D01*
X160300047Y-88558339D01*
X160430568Y-88371934D01*
X160526739Y-88165696D01*
X160585635Y-87945892D01*
X160605468Y-87719200D01*
X160585635Y-87492508D01*
X160529134Y-87281641D01*
X160526741Y-87272711D01*
X160526738Y-87272702D01*
X160497869Y-87210793D01*
X160430568Y-87066466D01*
X160300047Y-86880061D01*
X160300045Y-86880058D01*
X160139141Y-86719154D01*
X159952734Y-86588632D01*
X159952728Y-86588629D01*
X159894725Y-86561582D01*
X159842285Y-86515410D01*
X159823133Y-86448217D01*
X159843348Y-86381335D01*
X159894725Y-86336818D01*
X159952734Y-86309768D01*
X160139139Y-86179247D01*
X160300047Y-86018339D01*
X160430568Y-85831934D01*
X160526739Y-85625696D01*
X160585635Y-85405892D01*
X160605468Y-85179200D01*
X160585635Y-84952508D01*
X160571565Y-84899999D01*
X162344341Y-84899999D01*
X162344341Y-84900000D01*
X162364936Y-85135403D01*
X162364938Y-85135413D01*
X162426094Y-85363655D01*
X162426096Y-85363659D01*
X162426097Y-85363663D01*
X162489650Y-85499953D01*
X162525965Y-85577830D01*
X162525967Y-85577834D01*
X162584102Y-85660858D01*
X162658612Y-85767270D01*
X162661501Y-85771395D01*
X162661506Y-85771402D01*
X162828597Y-85938493D01*
X162828603Y-85938498D01*
X163014158Y-86068425D01*
X163057783Y-86123002D01*
X163064977Y-86192500D01*
X163033454Y-86254855D01*
X163014158Y-86271575D01*
X162828597Y-86401505D01*
X162661505Y-86568597D01*
X162525965Y-86762169D01*
X162525964Y-86762171D01*
X162426098Y-86976335D01*
X162426094Y-86976344D01*
X162364938Y-87204586D01*
X162364936Y-87204596D01*
X162344341Y-87439999D01*
X162344341Y-87440000D01*
X162364936Y-87675403D01*
X162364938Y-87675413D01*
X162426094Y-87903655D01*
X162426096Y-87903659D01*
X162426097Y-87903663D01*
X162466454Y-87990209D01*
X162525965Y-88117830D01*
X162525967Y-88117834D01*
X162634281Y-88272521D01*
X162661505Y-88311401D01*
X162828599Y-88478495D01*
X162998491Y-88597455D01*
X163014594Y-88608730D01*
X163058219Y-88663307D01*
X163065413Y-88732805D01*
X163033890Y-88795160D01*
X163014595Y-88811880D01*
X162828922Y-88941890D01*
X162828920Y-88941891D01*
X162661891Y-89108920D01*
X162661886Y-89108926D01*
X162526400Y-89302420D01*
X162526399Y-89302422D01*
X162426570Y-89516507D01*
X162426567Y-89516513D01*
X162369364Y-89729999D01*
X162369364Y-89730000D01*
X163266988Y-89730000D01*
X163234075Y-89787007D01*
X163200000Y-89914174D01*
X163200000Y-90045826D01*
X163234075Y-90172993D01*
X163266988Y-90230000D01*
X162369364Y-90230000D01*
X162426567Y-90443486D01*
X162426570Y-90443492D01*
X162526399Y-90657578D01*
X162661894Y-90851082D01*
X162783946Y-90973134D01*
X162817431Y-91034457D01*
X162812447Y-91104149D01*
X162770575Y-91160082D01*
X162739598Y-91176997D01*
X162607671Y-91226202D01*
X162607664Y-91226206D01*
X162492455Y-91312452D01*
X162492452Y-91312455D01*
X162406206Y-91427664D01*
X162406202Y-91427671D01*
X162355908Y-91562517D01*
X162350942Y-91608716D01*
X162349501Y-91622123D01*
X162349500Y-91622135D01*
X162349500Y-93417870D01*
X162349501Y-93417876D01*
X162355908Y-93477483D01*
X162406202Y-93612328D01*
X162406206Y-93612335D01*
X162492452Y-93727544D01*
X162492455Y-93727547D01*
X162607664Y-93813793D01*
X162607671Y-93813797D01*
X162742517Y-93864091D01*
X162742516Y-93864091D01*
X162749444Y-93864835D01*
X162802127Y-93870500D01*
X164597872Y-93870499D01*
X164657483Y-93864091D01*
X164792331Y-93813796D01*
X164907546Y-93727546D01*
X164993796Y-93612331D01*
X165044091Y-93477483D01*
X165050500Y-93417873D01*
X165050499Y-91622128D01*
X165044091Y-91562517D01*
X165043427Y-91560738D01*
X164993797Y-91427671D01*
X164993793Y-91427664D01*
X164907547Y-91312455D01*
X164907544Y-91312452D01*
X164792335Y-91226206D01*
X164792328Y-91226202D01*
X164660401Y-91176997D01*
X164604467Y-91135126D01*
X164580050Y-91069662D01*
X164594902Y-91001389D01*
X164616053Y-90973133D01*
X164738108Y-90851078D01*
X164873600Y-90657578D01*
X164973429Y-90443492D01*
X164973432Y-90443486D01*
X165030636Y-90230000D01*
X164133012Y-90230000D01*
X164165925Y-90172993D01*
X164200000Y-90045826D01*
X164200000Y-89914174D01*
X164165925Y-89787007D01*
X164133012Y-89730000D01*
X165030636Y-89730000D01*
X165030635Y-89729999D01*
X164973432Y-89516513D01*
X164973429Y-89516507D01*
X164873600Y-89302422D01*
X164873599Y-89302420D01*
X164738113Y-89108926D01*
X164738108Y-89108920D01*
X164571078Y-88941890D01*
X164385405Y-88811879D01*
X164341780Y-88757302D01*
X164334588Y-88687804D01*
X164366110Y-88625449D01*
X164385406Y-88608730D01*
X164571401Y-88478495D01*
X164738495Y-88311401D01*
X164874035Y-88117830D01*
X164973903Y-87903663D01*
X165035063Y-87675408D01*
X165055659Y-87440000D01*
X165035063Y-87204592D01*
X164973903Y-86976337D01*
X164874035Y-86762171D01*
X164849193Y-86726692D01*
X164738494Y-86568597D01*
X164571402Y-86401506D01*
X164571396Y-86401501D01*
X164385842Y-86271575D01*
X164342217Y-86216998D01*
X164335023Y-86147500D01*
X164366546Y-86085145D01*
X164385842Y-86068425D01*
X164501543Y-85987410D01*
X164571401Y-85938495D01*
X164738495Y-85771401D01*
X164874035Y-85577830D01*
X164973903Y-85363663D01*
X165035063Y-85135408D01*
X165055659Y-84900000D01*
X165035063Y-84664592D01*
X164973903Y-84436337D01*
X164874035Y-84222171D01*
X164855925Y-84196306D01*
X164738494Y-84028597D01*
X164571402Y-83861506D01*
X164571395Y-83861501D01*
X164377834Y-83725967D01*
X164377830Y-83725965D01*
X164377828Y-83725964D01*
X164163663Y-83626097D01*
X164163659Y-83626096D01*
X164163655Y-83626094D01*
X163935413Y-83564938D01*
X163935403Y-83564936D01*
X163700001Y-83544341D01*
X163699999Y-83544341D01*
X163464596Y-83564936D01*
X163464586Y-83564938D01*
X163236344Y-83626094D01*
X163236335Y-83626098D01*
X163022171Y-83725964D01*
X163022169Y-83725965D01*
X162828597Y-83861505D01*
X162661505Y-84028597D01*
X162525965Y-84222169D01*
X162525964Y-84222171D01*
X162426098Y-84436335D01*
X162426094Y-84436344D01*
X162364938Y-84664586D01*
X162364936Y-84664596D01*
X162344341Y-84899999D01*
X160571565Y-84899999D01*
X160526739Y-84732704D01*
X160430568Y-84526466D01*
X160300047Y-84340061D01*
X160300045Y-84340058D01*
X160139141Y-84179154D01*
X159952734Y-84048632D01*
X159952728Y-84048629D01*
X159894725Y-84021582D01*
X159842285Y-83975410D01*
X159823133Y-83908217D01*
X159843348Y-83841335D01*
X159894725Y-83796818D01*
X159952734Y-83769768D01*
X160139139Y-83639247D01*
X160300047Y-83478339D01*
X160430568Y-83291934D01*
X160526739Y-83085696D01*
X160585635Y-82865892D01*
X160605468Y-82639200D01*
X160605467Y-82639194D01*
X160585635Y-82412513D01*
X160585635Y-82412508D01*
X160526739Y-82192704D01*
X160430568Y-81986466D01*
X160300047Y-81800061D01*
X160300045Y-81800058D01*
X160139141Y-81639154D01*
X159952734Y-81508632D01*
X159952728Y-81508629D01*
X159894725Y-81481582D01*
X159842285Y-81435410D01*
X159823133Y-81368217D01*
X159843348Y-81301335D01*
X159894725Y-81256818D01*
X159952734Y-81229768D01*
X160139139Y-81099247D01*
X160300047Y-80938339D01*
X160430568Y-80751934D01*
X160526739Y-80545696D01*
X160585635Y-80325892D01*
X160605468Y-80099200D01*
X160605467Y-80099194D01*
X160585635Y-79872513D01*
X160585635Y-79872508D01*
X160526739Y-79652704D01*
X160430568Y-79446466D01*
X160300047Y-79260061D01*
X160300045Y-79260058D01*
X160139141Y-79099154D01*
X159952734Y-78968632D01*
X159952728Y-78968629D01*
X159894725Y-78941582D01*
X159842285Y-78895410D01*
X159823133Y-78828217D01*
X159843348Y-78761335D01*
X159894725Y-78716818D01*
X159952734Y-78689768D01*
X160139139Y-78559247D01*
X160300047Y-78398339D01*
X160430568Y-78211934D01*
X160526739Y-78005696D01*
X160585635Y-77785892D01*
X160605468Y-77559200D01*
X160585635Y-77332508D01*
X160526739Y-77112704D01*
X160430568Y-76906466D01*
X160300047Y-76720061D01*
X160300045Y-76720058D01*
X160139141Y-76559154D01*
X159952734Y-76428632D01*
X159952728Y-76428629D01*
X159894725Y-76401582D01*
X159842285Y-76355410D01*
X159823133Y-76288217D01*
X159843348Y-76221335D01*
X159894725Y-76176818D01*
X159952734Y-76149768D01*
X160139139Y-76019247D01*
X160300047Y-75858339D01*
X160430568Y-75671934D01*
X160526739Y-75465696D01*
X160585635Y-75245892D01*
X160605468Y-75019200D01*
X160585635Y-74792508D01*
X160540916Y-74625615D01*
X160526741Y-74572711D01*
X160526738Y-74572702D01*
X160430568Y-74366467D01*
X160430567Y-74366465D01*
X160296942Y-74175626D01*
X160298751Y-74174359D01*
X160274530Y-74119056D01*
X160285551Y-74050061D01*
X160309844Y-74015647D01*
X163905276Y-70420216D01*
X163976465Y-70313673D01*
X164025501Y-70195290D01*
X164025501Y-70195286D01*
X164025503Y-70195283D01*
X164031349Y-70165893D01*
X164031349Y-70165892D01*
X164050500Y-70069617D01*
X164050500Y-70054499D01*
X164070185Y-69987460D01*
X164122989Y-69941705D01*
X164174500Y-69930499D01*
X164297871Y-69930499D01*
X164297872Y-69930499D01*
X164357483Y-69924091D01*
X164492331Y-69873796D01*
X164607546Y-69787546D01*
X164693796Y-69672331D01*
X164744091Y-69537483D01*
X164750500Y-69477873D01*
X164750499Y-67682128D01*
X164744091Y-67622517D01*
X164693796Y-67487669D01*
X164693795Y-67487668D01*
X164693793Y-67487664D01*
X164607547Y-67372455D01*
X164607544Y-67372452D01*
X164492335Y-67286206D01*
X164492328Y-67286202D01*
X164360917Y-67237189D01*
X164304983Y-67195318D01*
X164280566Y-67129853D01*
X164295418Y-67061580D01*
X164316563Y-67033332D01*
X164438495Y-66911401D01*
X164574035Y-66717830D01*
X164673903Y-66503663D01*
X164735063Y-66275408D01*
X164755659Y-66040000D01*
X164735063Y-65804592D01*
X164673903Y-65576337D01*
X164574035Y-65362171D01*
X164534486Y-65305688D01*
X164438494Y-65168597D01*
X164271402Y-65001506D01*
X164271401Y-65001505D01*
X164085405Y-64871269D01*
X164041781Y-64816692D01*
X164034588Y-64747193D01*
X164066110Y-64684839D01*
X164085405Y-64668119D01*
X164271082Y-64538105D01*
X164438105Y-64371082D01*
X164573600Y-64177578D01*
X164673429Y-63963492D01*
X164673432Y-63963486D01*
X164730636Y-63750000D01*
X163833012Y-63750000D01*
X163865925Y-63692993D01*
X163900000Y-63565826D01*
X163900000Y-63434174D01*
X163865925Y-63307007D01*
X163833012Y-63250000D01*
X164730636Y-63250000D01*
X164730635Y-63249999D01*
X164673432Y-63036513D01*
X164673429Y-63036507D01*
X164573600Y-62822422D01*
X164573599Y-62822420D01*
X164438113Y-62628926D01*
X164438108Y-62628920D01*
X164271078Y-62461890D01*
X164085405Y-62331879D01*
X164041780Y-62277302D01*
X164034588Y-62207804D01*
X164066110Y-62145449D01*
X164085406Y-62128730D01*
X164271401Y-61998495D01*
X164438495Y-61831401D01*
X164574035Y-61637830D01*
X164673903Y-61423663D01*
X164735063Y-61195408D01*
X164755659Y-60960000D01*
X164735063Y-60724592D01*
X164673903Y-60496337D01*
X164574035Y-60282171D01*
X164534486Y-60225688D01*
X164438494Y-60088597D01*
X164271402Y-59921506D01*
X164271395Y-59921501D01*
X164077834Y-59785967D01*
X164077830Y-59785965D01*
X164063318Y-59779198D01*
X163863663Y-59686097D01*
X163863659Y-59686096D01*
X163863655Y-59686094D01*
X163635413Y-59624938D01*
X163635403Y-59624936D01*
X163400001Y-59604341D01*
X163399999Y-59604341D01*
X163164596Y-59624936D01*
X163164586Y-59624938D01*
X162936344Y-59686094D01*
X162936335Y-59686098D01*
X162722171Y-59785964D01*
X162722169Y-59785965D01*
X162528597Y-59921505D01*
X162361505Y-60088597D01*
X162225965Y-60282169D01*
X162225964Y-60282171D01*
X162126098Y-60496335D01*
X162126094Y-60496344D01*
X162064938Y-60724586D01*
X162064936Y-60724596D01*
X162044341Y-60959999D01*
X162044341Y-60960000D01*
X162064936Y-61195403D01*
X162064938Y-61195413D01*
X162126094Y-61423655D01*
X162126096Y-61423659D01*
X162126097Y-61423663D01*
X162152396Y-61480061D01*
X162225965Y-61637830D01*
X162225967Y-61637834D01*
X162334281Y-61792521D01*
X162361505Y-61831401D01*
X162528599Y-61998495D01*
X162662870Y-62092513D01*
X162714594Y-62128730D01*
X162758219Y-62183307D01*
X162765413Y-62252805D01*
X162733890Y-62315160D01*
X162714595Y-62331880D01*
X162528922Y-62461890D01*
X162528920Y-62461891D01*
X162361891Y-62628920D01*
X162361886Y-62628926D01*
X162226400Y-62822420D01*
X162226399Y-62822422D01*
X162126570Y-63036507D01*
X162126567Y-63036513D01*
X162069364Y-63249999D01*
X162069364Y-63250000D01*
X162966988Y-63250000D01*
X162934075Y-63307007D01*
X162900000Y-63434174D01*
X162900000Y-63565826D01*
X162934075Y-63692993D01*
X162966988Y-63750000D01*
X162069364Y-63750000D01*
X162126567Y-63963486D01*
X162126570Y-63963492D01*
X162226399Y-64177578D01*
X162361894Y-64371082D01*
X162528917Y-64538105D01*
X162714595Y-64668119D01*
X162758219Y-64722696D01*
X162765412Y-64792195D01*
X162733890Y-64854549D01*
X162714595Y-64871269D01*
X162528594Y-65001508D01*
X162361505Y-65168597D01*
X162225965Y-65362169D01*
X162225964Y-65362171D01*
X162126098Y-65576335D01*
X162126094Y-65576344D01*
X162064938Y-65804586D01*
X162064936Y-65804596D01*
X162044341Y-66039999D01*
X162044341Y-66040000D01*
X162064936Y-66275403D01*
X162064939Y-66275416D01*
X162084384Y-66347989D01*
X162082721Y-66417839D01*
X162052290Y-66467762D01*
X160796956Y-67723096D01*
X160735633Y-67756581D01*
X160665941Y-67751597D01*
X160610008Y-67709725D01*
X160585591Y-67644261D01*
X160585747Y-67624607D01*
X160586895Y-67611492D01*
X160605468Y-67399200D01*
X160585635Y-67172508D01*
X160526739Y-66952704D01*
X160430568Y-66746466D01*
X160300047Y-66560061D01*
X160300045Y-66560058D01*
X160139141Y-66399154D01*
X159952734Y-66268632D01*
X159952728Y-66268629D01*
X159894725Y-66241582D01*
X159842285Y-66195410D01*
X159823133Y-66128217D01*
X159843348Y-66061335D01*
X159894725Y-66016818D01*
X159952734Y-65989768D01*
X160139139Y-65859247D01*
X160300047Y-65698339D01*
X160430568Y-65511934D01*
X160526739Y-65305696D01*
X160585635Y-65085892D01*
X160605468Y-64859200D01*
X160585635Y-64632508D01*
X160526739Y-64412704D01*
X160430568Y-64206466D01*
X160300047Y-64020061D01*
X160300045Y-64020058D01*
X160139141Y-63859154D01*
X159952734Y-63728632D01*
X159952728Y-63728629D01*
X159894725Y-63701582D01*
X159842285Y-63655410D01*
X159823133Y-63588217D01*
X159843348Y-63521335D01*
X159894725Y-63476818D01*
X159952734Y-63449768D01*
X160139139Y-63319247D01*
X160300047Y-63158339D01*
X160430568Y-62971934D01*
X160526739Y-62765696D01*
X160585635Y-62545892D01*
X160605468Y-62319200D01*
X160585635Y-62092508D01*
X160526739Y-61872704D01*
X160430568Y-61666466D01*
X160300047Y-61480061D01*
X160300045Y-61480058D01*
X160139141Y-61319154D01*
X159952734Y-61188632D01*
X159952728Y-61188629D01*
X159894725Y-61161582D01*
X159842285Y-61115410D01*
X159823133Y-61048217D01*
X159843348Y-60981335D01*
X159894725Y-60936818D01*
X159952734Y-60909768D01*
X160139139Y-60779247D01*
X160300047Y-60618339D01*
X160430568Y-60431934D01*
X160526739Y-60225696D01*
X160585635Y-60005892D01*
X160605468Y-59779200D01*
X160585635Y-59552508D01*
X160526739Y-59332704D01*
X160430568Y-59126466D01*
X160300047Y-58940061D01*
X160300045Y-58940058D01*
X160139141Y-58779154D01*
X159952734Y-58648632D01*
X159952728Y-58648629D01*
X159894725Y-58621582D01*
X159842285Y-58575410D01*
X159823133Y-58508217D01*
X159843348Y-58441335D01*
X159894725Y-58396818D01*
X159952734Y-58369768D01*
X160139139Y-58239247D01*
X160300047Y-58078339D01*
X160430568Y-57891934D01*
X160526739Y-57685696D01*
X160585635Y-57465892D01*
X160605468Y-57239200D01*
X160585635Y-57012508D01*
X160526739Y-56792704D01*
X160430568Y-56586466D01*
X160300047Y-56400061D01*
X160300045Y-56400058D01*
X160139141Y-56239154D01*
X159952734Y-56108632D01*
X159952728Y-56108629D01*
X159894725Y-56081582D01*
X159842285Y-56035410D01*
X159823133Y-55968217D01*
X159843348Y-55901335D01*
X159894725Y-55856818D01*
X159952734Y-55829768D01*
X160139139Y-55699247D01*
X160300047Y-55538339D01*
X160430568Y-55351934D01*
X160526739Y-55145696D01*
X160585635Y-54925892D01*
X160605468Y-54699200D01*
X160585635Y-54472508D01*
X160526739Y-54252704D01*
X160430568Y-54046466D01*
X160300047Y-53860061D01*
X160300045Y-53860058D01*
X160139141Y-53699154D01*
X159952734Y-53568632D01*
X159952728Y-53568629D01*
X159894725Y-53541582D01*
X159842285Y-53495410D01*
X159823133Y-53428217D01*
X159843348Y-53361335D01*
X159894725Y-53316818D01*
X159952734Y-53289768D01*
X160139139Y-53159247D01*
X160300047Y-52998339D01*
X160430568Y-52811934D01*
X160526739Y-52605696D01*
X160585635Y-52385892D01*
X160605468Y-52159200D01*
X160585635Y-51932508D01*
X160526739Y-51712704D01*
X160430568Y-51506466D01*
X160300047Y-51320061D01*
X160300045Y-51320058D01*
X160139141Y-51159154D01*
X159952734Y-51028632D01*
X159952728Y-51028629D01*
X159894725Y-51001582D01*
X159842285Y-50955410D01*
X159823133Y-50888217D01*
X159843348Y-50821335D01*
X159894725Y-50776818D01*
X159952734Y-50749768D01*
X160139139Y-50619247D01*
X160300047Y-50458339D01*
X160430568Y-50271934D01*
X160526739Y-50065696D01*
X160585635Y-49845892D01*
X160605468Y-49619200D01*
X160585635Y-49392508D01*
X160526739Y-49172704D01*
X160430568Y-48966466D01*
X160300047Y-48780061D01*
X160300045Y-48780058D01*
X160139141Y-48619154D01*
X159952734Y-48488632D01*
X159952728Y-48488629D01*
X159894725Y-48461582D01*
X159842285Y-48415410D01*
X159823133Y-48348217D01*
X159843348Y-48281335D01*
X159894725Y-48236818D01*
X159952734Y-48209768D01*
X160139139Y-48079247D01*
X160300047Y-47918339D01*
X160430568Y-47731934D01*
X160526739Y-47525696D01*
X160585635Y-47305892D01*
X160605468Y-47079200D01*
X160585635Y-46852508D01*
X160526739Y-46632704D01*
X160430568Y-46426466D01*
X160300047Y-46240061D01*
X160300045Y-46240058D01*
X160139141Y-46079154D01*
X159952734Y-45948632D01*
X159952728Y-45948629D01*
X159894725Y-45921582D01*
X159842285Y-45875410D01*
X159823133Y-45808217D01*
X159843348Y-45741335D01*
X159894725Y-45696818D01*
X159952734Y-45669768D01*
X160139139Y-45539247D01*
X160300047Y-45378339D01*
X160430568Y-45191934D01*
X160526739Y-44985696D01*
X160585635Y-44765892D01*
X160605468Y-44539200D01*
X160585635Y-44312508D01*
X160526739Y-44092704D01*
X160430568Y-43886466D01*
X160300047Y-43700061D01*
X160300045Y-43700058D01*
X160139141Y-43539154D01*
X159952734Y-43408632D01*
X159952732Y-43408631D01*
X159746497Y-43312461D01*
X159746488Y-43312458D01*
X159526697Y-43253566D01*
X159526693Y-43253565D01*
X159526692Y-43253565D01*
X159526691Y-43253564D01*
X159526686Y-43253564D01*
X159300002Y-43233732D01*
X159299998Y-43233732D01*
X159073313Y-43253564D01*
X159073302Y-43253566D01*
X158853511Y-43312458D01*
X158853502Y-43312461D01*
X158647267Y-43408631D01*
X158647265Y-43408632D01*
X158460858Y-43539154D01*
X158299954Y-43700058D01*
X158169432Y-43886465D01*
X158169431Y-43886467D01*
X158073261Y-44092702D01*
X158073258Y-44092711D01*
X158014366Y-44312502D01*
X158014364Y-44312513D01*
X157994532Y-44539198D01*
X157994532Y-44539201D01*
X158014364Y-44765886D01*
X158014366Y-44765897D01*
X158073258Y-44985688D01*
X158073261Y-44985697D01*
X158169431Y-45191932D01*
X158169432Y-45191934D01*
X158299954Y-45378341D01*
X158460858Y-45539245D01*
X158460861Y-45539247D01*
X158647266Y-45669768D01*
X158705275Y-45696818D01*
X158757714Y-45742991D01*
X158776866Y-45810184D01*
X158756650Y-45877065D01*
X158705275Y-45921582D01*
X158647267Y-45948631D01*
X158647265Y-45948632D01*
X158460858Y-46079154D01*
X158299954Y-46240058D01*
X158169432Y-46426465D01*
X158169431Y-46426467D01*
X158073261Y-46632702D01*
X158073258Y-46632711D01*
X158014366Y-46852502D01*
X158014364Y-46852513D01*
X157994532Y-47079198D01*
X157994532Y-47079201D01*
X158014364Y-47305886D01*
X158014366Y-47305897D01*
X158073258Y-47525688D01*
X158073261Y-47525697D01*
X158169431Y-47731932D01*
X158169432Y-47731934D01*
X158299954Y-47918341D01*
X158460858Y-48079245D01*
X158460861Y-48079247D01*
X158647266Y-48209768D01*
X158705275Y-48236818D01*
X158757714Y-48282991D01*
X158776866Y-48350184D01*
X158756650Y-48417065D01*
X158705275Y-48461582D01*
X158647267Y-48488631D01*
X158647265Y-48488632D01*
X158460858Y-48619154D01*
X158299954Y-48780058D01*
X158169432Y-48966465D01*
X158169431Y-48966467D01*
X158073261Y-49172702D01*
X158073258Y-49172711D01*
X158014366Y-49392502D01*
X158014364Y-49392513D01*
X157994532Y-49619198D01*
X157994532Y-49619201D01*
X158014364Y-49845886D01*
X158014366Y-49845897D01*
X158073258Y-50065688D01*
X158073261Y-50065697D01*
X158169431Y-50271932D01*
X158169432Y-50271934D01*
X158299954Y-50458341D01*
X158460858Y-50619245D01*
X158460861Y-50619247D01*
X158647266Y-50749768D01*
X158705275Y-50776818D01*
X158757714Y-50822991D01*
X158776866Y-50890184D01*
X158756650Y-50957065D01*
X158705275Y-51001582D01*
X158647267Y-51028631D01*
X158647265Y-51028632D01*
X158460858Y-51159154D01*
X158299954Y-51320058D01*
X158169432Y-51506465D01*
X158169431Y-51506467D01*
X158073261Y-51712702D01*
X158073258Y-51712711D01*
X158014366Y-51932502D01*
X158014364Y-51932513D01*
X157994532Y-52159198D01*
X157994532Y-52159201D01*
X158014364Y-52385886D01*
X158014366Y-52385897D01*
X158073258Y-52605688D01*
X158073261Y-52605697D01*
X158169431Y-52811932D01*
X158169432Y-52811934D01*
X158299954Y-52998341D01*
X158460858Y-53159245D01*
X158460861Y-53159247D01*
X158647266Y-53289768D01*
X158705275Y-53316818D01*
X158757714Y-53362991D01*
X158776866Y-53430184D01*
X158756650Y-53497065D01*
X158705275Y-53541582D01*
X158647267Y-53568631D01*
X158647265Y-53568632D01*
X158460858Y-53699154D01*
X158299954Y-53860058D01*
X158169432Y-54046465D01*
X158169431Y-54046467D01*
X158073261Y-54252702D01*
X158073258Y-54252711D01*
X158014366Y-54472502D01*
X158014364Y-54472513D01*
X157994532Y-54699198D01*
X157994532Y-54699201D01*
X158014364Y-54925886D01*
X158014366Y-54925897D01*
X158073258Y-55145688D01*
X158073261Y-55145697D01*
X158169431Y-55351932D01*
X158169432Y-55351934D01*
X158299954Y-55538341D01*
X158460858Y-55699245D01*
X158460861Y-55699247D01*
X158647266Y-55829768D01*
X158705275Y-55856818D01*
X158757714Y-55902991D01*
X158776866Y-55970184D01*
X158756650Y-56037065D01*
X158705275Y-56081582D01*
X158647267Y-56108631D01*
X158647265Y-56108632D01*
X158460858Y-56239154D01*
X158299954Y-56400058D01*
X158169432Y-56586465D01*
X158169431Y-56586467D01*
X158142382Y-56644475D01*
X158096209Y-56696914D01*
X158029016Y-56716066D01*
X157962135Y-56695850D01*
X157917618Y-56644475D01*
X157890568Y-56586467D01*
X157890567Y-56586465D01*
X157760045Y-56400058D01*
X157599141Y-56239154D01*
X157412734Y-56108632D01*
X157412732Y-56108631D01*
X157206497Y-56012461D01*
X157206488Y-56012458D01*
X156986697Y-55953566D01*
X156986693Y-55953565D01*
X156986692Y-55953565D01*
X156986691Y-55953564D01*
X156986686Y-55953564D01*
X156760002Y-55933732D01*
X156759998Y-55933732D01*
X156533313Y-55953564D01*
X156533302Y-55953566D01*
X156313511Y-56012458D01*
X156313502Y-56012461D01*
X156107267Y-56108631D01*
X156107265Y-56108632D01*
X155920858Y-56239154D01*
X155759954Y-56400058D01*
X155629432Y-56586465D01*
X155629431Y-56586467D01*
X155602382Y-56644475D01*
X155556209Y-56696914D01*
X155489016Y-56716066D01*
X155422135Y-56695850D01*
X155377618Y-56644475D01*
X155350568Y-56586467D01*
X155350567Y-56586465D01*
X155220045Y-56400058D01*
X155059141Y-56239154D01*
X154872734Y-56108632D01*
X154872732Y-56108631D01*
X154666497Y-56012461D01*
X154666488Y-56012458D01*
X154446697Y-55953566D01*
X154446693Y-55953565D01*
X154446692Y-55953565D01*
X154446691Y-55953564D01*
X154446686Y-55953564D01*
X154220002Y-55933732D01*
X154219998Y-55933732D01*
X153993313Y-55953564D01*
X153993302Y-55953566D01*
X153773511Y-56012458D01*
X153773502Y-56012461D01*
X153567267Y-56108631D01*
X153567265Y-56108632D01*
X153380858Y-56239154D01*
X153219954Y-56400058D01*
X153089432Y-56586465D01*
X153089431Y-56586467D01*
X153062382Y-56644475D01*
X153016209Y-56696914D01*
X152949016Y-56716066D01*
X152882135Y-56695850D01*
X152837618Y-56644475D01*
X152810568Y-56586467D01*
X152810567Y-56586465D01*
X152680045Y-56400058D01*
X152519141Y-56239154D01*
X152332734Y-56108632D01*
X152332732Y-56108631D01*
X152126497Y-56012461D01*
X152126488Y-56012458D01*
X151906697Y-55953566D01*
X151906693Y-55953565D01*
X151906692Y-55953565D01*
X151906691Y-55953564D01*
X151906686Y-55953564D01*
X151680002Y-55933732D01*
X151679998Y-55933732D01*
X151453313Y-55953564D01*
X151453302Y-55953566D01*
X151233511Y-56012458D01*
X151233502Y-56012461D01*
X151027267Y-56108631D01*
X151027265Y-56108632D01*
X150840858Y-56239154D01*
X150679954Y-56400058D01*
X150549432Y-56586465D01*
X150549431Y-56586467D01*
X150522382Y-56644475D01*
X150476209Y-56696914D01*
X150409016Y-56716066D01*
X150342135Y-56695850D01*
X150297618Y-56644475D01*
X150270568Y-56586467D01*
X150270567Y-56586465D01*
X150140045Y-56400058D01*
X149979141Y-56239154D01*
X149792734Y-56108632D01*
X149792732Y-56108631D01*
X149586497Y-56012461D01*
X149586488Y-56012458D01*
X149366697Y-55953566D01*
X149366693Y-55953565D01*
X149366692Y-55953565D01*
X149366691Y-55953564D01*
X149366686Y-55953564D01*
X149140002Y-55933732D01*
X149139998Y-55933732D01*
X148913313Y-55953564D01*
X148913302Y-55953566D01*
X148693511Y-56012458D01*
X148693502Y-56012461D01*
X148487267Y-56108631D01*
X148487265Y-56108632D01*
X148300858Y-56239154D01*
X148139954Y-56400058D01*
X148009432Y-56586465D01*
X148009431Y-56586467D01*
X147982382Y-56644475D01*
X147936209Y-56696914D01*
X147869016Y-56716066D01*
X147802135Y-56695850D01*
X147757618Y-56644475D01*
X147730568Y-56586467D01*
X147730567Y-56586465D01*
X147600045Y-56400058D01*
X147439141Y-56239154D01*
X147252734Y-56108632D01*
X147252732Y-56108631D01*
X147046497Y-56012461D01*
X147046488Y-56012458D01*
X146826697Y-55953566D01*
X146826693Y-55953565D01*
X146826692Y-55953565D01*
X146826691Y-55953564D01*
X146826686Y-55953564D01*
X146600002Y-55933732D01*
X146599998Y-55933732D01*
X146373313Y-55953564D01*
X146373302Y-55953566D01*
X146153511Y-56012458D01*
X146153502Y-56012461D01*
X145947267Y-56108631D01*
X145947265Y-56108632D01*
X145760858Y-56239154D01*
X145599954Y-56400058D01*
X145469432Y-56586465D01*
X145469431Y-56586467D01*
X145442382Y-56644475D01*
X145396209Y-56696914D01*
X145329016Y-56716066D01*
X145262135Y-56695850D01*
X145217618Y-56644475D01*
X145190568Y-56586467D01*
X145190567Y-56586465D01*
X145060045Y-56400058D01*
X144899141Y-56239154D01*
X144712734Y-56108632D01*
X144712728Y-56108629D01*
X144654725Y-56081582D01*
X144602285Y-56035410D01*
X144583133Y-55968217D01*
X144603348Y-55901335D01*
X144654725Y-55856818D01*
X144712734Y-55829768D01*
X144899139Y-55699247D01*
X145060047Y-55538339D01*
X145190568Y-55351934D01*
X145286739Y-55145696D01*
X145345635Y-54925892D01*
X145365468Y-54699200D01*
X145345635Y-54472508D01*
X145286739Y-54252704D01*
X145190568Y-54046466D01*
X145060047Y-53860061D01*
X145060045Y-53860058D01*
X144899141Y-53699154D01*
X144712734Y-53568632D01*
X144712728Y-53568629D01*
X144654725Y-53541582D01*
X144602285Y-53495410D01*
X144583133Y-53428217D01*
X144603348Y-53361335D01*
X144654725Y-53316818D01*
X144712734Y-53289768D01*
X144899139Y-53159247D01*
X145060047Y-52998339D01*
X145190568Y-52811934D01*
X145286739Y-52605696D01*
X145345635Y-52385892D01*
X145365468Y-52159200D01*
X145345635Y-51932508D01*
X145286739Y-51712704D01*
X145190568Y-51506466D01*
X145060047Y-51320061D01*
X145060045Y-51320058D01*
X144899141Y-51159154D01*
X144712734Y-51028632D01*
X144712728Y-51028629D01*
X144654725Y-51001582D01*
X144602285Y-50955410D01*
X144583133Y-50888217D01*
X144603348Y-50821335D01*
X144654725Y-50776818D01*
X144712734Y-50749768D01*
X144899139Y-50619247D01*
X145060047Y-50458339D01*
X145190568Y-50271934D01*
X145286739Y-50065696D01*
X145345635Y-49845892D01*
X145365468Y-49619200D01*
X145345635Y-49392508D01*
X145286739Y-49172704D01*
X145190568Y-48966466D01*
X145060047Y-48780061D01*
X145060045Y-48780058D01*
X144899141Y-48619154D01*
X144712734Y-48488632D01*
X144712728Y-48488629D01*
X144654725Y-48461582D01*
X144602285Y-48415410D01*
X144583133Y-48348217D01*
X144603348Y-48281335D01*
X144654725Y-48236818D01*
X144712734Y-48209768D01*
X144899139Y-48079247D01*
X145060047Y-47918339D01*
X145190568Y-47731934D01*
X145286739Y-47525696D01*
X145345635Y-47305892D01*
X145365468Y-47079200D01*
X145345635Y-46852508D01*
X145286739Y-46632704D01*
X145190568Y-46426466D01*
X145060047Y-46240061D01*
X145060045Y-46240058D01*
X144899141Y-46079154D01*
X144712734Y-45948632D01*
X144712728Y-45948629D01*
X144654725Y-45921582D01*
X144602285Y-45875410D01*
X144583133Y-45808217D01*
X144603348Y-45741335D01*
X144654725Y-45696818D01*
X144712734Y-45669768D01*
X144899139Y-45539247D01*
X145060047Y-45378339D01*
X145190568Y-45191934D01*
X145286739Y-44985696D01*
X145345635Y-44765892D01*
X145365468Y-44539200D01*
X145345635Y-44312508D01*
X145286739Y-44092704D01*
X145190568Y-43886466D01*
X145060047Y-43700061D01*
X145060045Y-43700058D01*
X144899141Y-43539154D01*
X144712734Y-43408632D01*
X144712732Y-43408631D01*
X144506497Y-43312461D01*
X144506488Y-43312458D01*
X144286697Y-43253566D01*
X144286693Y-43253565D01*
X144286692Y-43253565D01*
X144286691Y-43253564D01*
X144286686Y-43253564D01*
X144060002Y-43233732D01*
X144059998Y-43233732D01*
X143833313Y-43253564D01*
X143833302Y-43253566D01*
X143613511Y-43312458D01*
X143613502Y-43312461D01*
X143407267Y-43408631D01*
X143407265Y-43408632D01*
X143220858Y-43539154D01*
X143059954Y-43700058D01*
X142929432Y-43886465D01*
X142929431Y-43886467D01*
X142833261Y-44092702D01*
X142833258Y-44092711D01*
X142774366Y-44312502D01*
X142774364Y-44312513D01*
X142754532Y-44539198D01*
X142754532Y-44539201D01*
X142774364Y-44765886D01*
X142774366Y-44765897D01*
X142833258Y-44985688D01*
X142833261Y-44985697D01*
X142929431Y-45191932D01*
X142929432Y-45191934D01*
X143059954Y-45378341D01*
X143220858Y-45539245D01*
X143220861Y-45539247D01*
X143407266Y-45669768D01*
X143465275Y-45696818D01*
X143517714Y-45742991D01*
X143536866Y-45810184D01*
X143516650Y-45877065D01*
X143465275Y-45921582D01*
X143407267Y-45948631D01*
X143407265Y-45948632D01*
X143220858Y-46079154D01*
X143059954Y-46240058D01*
X142929432Y-46426465D01*
X142929431Y-46426467D01*
X142833261Y-46632702D01*
X142833258Y-46632711D01*
X142774366Y-46852502D01*
X142774364Y-46852513D01*
X142754532Y-47079198D01*
X142754532Y-47079201D01*
X142774364Y-47305886D01*
X142774366Y-47305897D01*
X142833258Y-47525688D01*
X142833261Y-47525697D01*
X142929431Y-47731932D01*
X142929432Y-47731934D01*
X143059954Y-47918341D01*
X143220858Y-48079245D01*
X143220861Y-48079247D01*
X143407266Y-48209768D01*
X143465275Y-48236818D01*
X143517714Y-48282991D01*
X143536866Y-48350184D01*
X143516650Y-48417065D01*
X143465275Y-48461582D01*
X143407267Y-48488631D01*
X143407265Y-48488632D01*
X143220858Y-48619154D01*
X143059954Y-48780058D01*
X142929432Y-48966465D01*
X142929431Y-48966467D01*
X142833261Y-49172702D01*
X142833258Y-49172711D01*
X142774366Y-49392502D01*
X142774364Y-49392513D01*
X142754532Y-49619198D01*
X142754532Y-49619201D01*
X142774364Y-49845886D01*
X142774366Y-49845897D01*
X142833258Y-50065688D01*
X142833261Y-50065697D01*
X142929431Y-50271932D01*
X142929432Y-50271934D01*
X143059954Y-50458341D01*
X143220858Y-50619245D01*
X143220861Y-50619247D01*
X143407266Y-50749768D01*
X143465275Y-50776818D01*
X143517714Y-50822991D01*
X143536866Y-50890184D01*
X143516650Y-50957065D01*
X143465275Y-51001582D01*
X143407267Y-51028631D01*
X143407265Y-51028632D01*
X143220858Y-51159154D01*
X143059954Y-51320058D01*
X142929432Y-51506465D01*
X142929431Y-51506467D01*
X142833261Y-51712702D01*
X142833258Y-51712711D01*
X142774366Y-51932502D01*
X142774364Y-51932513D01*
X142754532Y-52159198D01*
X142754532Y-52159201D01*
X142774364Y-52385886D01*
X142774366Y-52385897D01*
X142833258Y-52605688D01*
X142833261Y-52605697D01*
X142929431Y-52811932D01*
X142929432Y-52811934D01*
X143059954Y-52998341D01*
X143220858Y-53159245D01*
X143220861Y-53159247D01*
X143407266Y-53289768D01*
X143465275Y-53316818D01*
X143517714Y-53362991D01*
X143536866Y-53430184D01*
X143516650Y-53497065D01*
X143465275Y-53541582D01*
X143407267Y-53568631D01*
X143407265Y-53568632D01*
X143220858Y-53699154D01*
X143059954Y-53860058D01*
X142929432Y-54046465D01*
X142929431Y-54046467D01*
X142833261Y-54252702D01*
X142833258Y-54252711D01*
X142774366Y-54472502D01*
X142774364Y-54472513D01*
X142754532Y-54699198D01*
X142754532Y-54699201D01*
X142774364Y-54925886D01*
X142774366Y-54925897D01*
X142833258Y-55145688D01*
X142833261Y-55145697D01*
X142929431Y-55351932D01*
X142929432Y-55351934D01*
X143059954Y-55538341D01*
X143220858Y-55699245D01*
X143220861Y-55699247D01*
X143407266Y-55829768D01*
X143465275Y-55856818D01*
X143517714Y-55902991D01*
X143536866Y-55970184D01*
X143516650Y-56037065D01*
X143465275Y-56081582D01*
X143407267Y-56108631D01*
X143407265Y-56108632D01*
X143220858Y-56239154D01*
X143059954Y-56400058D01*
X142929432Y-56586465D01*
X142929431Y-56586467D01*
X142833261Y-56792702D01*
X142833258Y-56792711D01*
X142774366Y-57012502D01*
X142774364Y-57012513D01*
X142754532Y-57239198D01*
X142754532Y-57239201D01*
X142774364Y-57465886D01*
X142774366Y-57465897D01*
X142833258Y-57685688D01*
X142833261Y-57685697D01*
X142929431Y-57891932D01*
X142929432Y-57891934D01*
X143059954Y-58078341D01*
X143220858Y-58239245D01*
X143220861Y-58239247D01*
X143407266Y-58369768D01*
X143465275Y-58396818D01*
X143517714Y-58442991D01*
X143536866Y-58510184D01*
X143516650Y-58577065D01*
X143465275Y-58621582D01*
X143407267Y-58648631D01*
X143407265Y-58648632D01*
X143220858Y-58779154D01*
X143059954Y-58940058D01*
X142929432Y-59126465D01*
X142929431Y-59126467D01*
X142833261Y-59332702D01*
X142833258Y-59332711D01*
X142774366Y-59552502D01*
X142774364Y-59552513D01*
X142754532Y-59779198D01*
X142754532Y-59779201D01*
X142774364Y-60005886D01*
X142774366Y-60005897D01*
X142833258Y-60225688D01*
X142833261Y-60225697D01*
X142929431Y-60431932D01*
X142929432Y-60431934D01*
X143059954Y-60618341D01*
X143220858Y-60779245D01*
X143220861Y-60779247D01*
X143407266Y-60909768D01*
X143465275Y-60936818D01*
X143517714Y-60982991D01*
X143536866Y-61050184D01*
X143516650Y-61117065D01*
X143465275Y-61161582D01*
X143407267Y-61188631D01*
X143407265Y-61188632D01*
X143220858Y-61319154D01*
X143059954Y-61480058D01*
X142929432Y-61666465D01*
X142929431Y-61666467D01*
X142833261Y-61872702D01*
X142833258Y-61872711D01*
X142774366Y-62092502D01*
X142774364Y-62092513D01*
X142754532Y-62319198D01*
X142754532Y-62319201D01*
X142774364Y-62545886D01*
X142774366Y-62545897D01*
X142833258Y-62765688D01*
X142833261Y-62765697D01*
X142929431Y-62971932D01*
X142929432Y-62971934D01*
X143059954Y-63158341D01*
X143220858Y-63319245D01*
X143220861Y-63319247D01*
X143407266Y-63449768D01*
X143465275Y-63476818D01*
X143517714Y-63522991D01*
X143536866Y-63590184D01*
X143516650Y-63657065D01*
X143465275Y-63701582D01*
X143407267Y-63728631D01*
X143407265Y-63728632D01*
X143220858Y-63859154D01*
X143059954Y-64020058D01*
X142929432Y-64206465D01*
X142929431Y-64206467D01*
X142833261Y-64412702D01*
X142833258Y-64412711D01*
X142774366Y-64632502D01*
X142774364Y-64632513D01*
X142754532Y-64859198D01*
X142754532Y-64859201D01*
X142774364Y-65085886D01*
X142774366Y-65085897D01*
X142833258Y-65305688D01*
X142833261Y-65305697D01*
X142929431Y-65511932D01*
X142929432Y-65511934D01*
X143059954Y-65698341D01*
X143220858Y-65859245D01*
X143220861Y-65859247D01*
X143407266Y-65989768D01*
X143465865Y-66017093D01*
X143518305Y-66063265D01*
X143537457Y-66130458D01*
X143517242Y-66197339D01*
X143465867Y-66241857D01*
X143407513Y-66269068D01*
X143407512Y-66269068D01*
X143334526Y-66320173D01*
X143334526Y-66320174D01*
X143889765Y-66875412D01*
X143847708Y-66886682D01*
X143722292Y-66959090D01*
X143619890Y-67061492D01*
X143547482Y-67186908D01*
X143536212Y-67228964D01*
X142980974Y-66673726D01*
X142980973Y-66673726D01*
X142929868Y-66746712D01*
X142929866Y-66746716D01*
X142833734Y-66952873D01*
X142833730Y-66952882D01*
X142774860Y-67172589D01*
X142774858Y-67172600D01*
X142755034Y-67399197D01*
X142755034Y-67399202D01*
X142774858Y-67625799D01*
X142774860Y-67625810D01*
X142833730Y-67845517D01*
X142833735Y-67845531D01*
X142929863Y-68051678D01*
X142980974Y-68124672D01*
X143536212Y-67569434D01*
X143547482Y-67611492D01*
X143619890Y-67736908D01*
X143722292Y-67839310D01*
X143847708Y-67911718D01*
X143889765Y-67922987D01*
X143334526Y-68478225D01*
X143407513Y-68529332D01*
X143407521Y-68529336D01*
X143465864Y-68556542D01*
X143518304Y-68602714D01*
X143537456Y-68669907D01*
X143517241Y-68736789D01*
X143465866Y-68781305D01*
X143407272Y-68808628D01*
X143407265Y-68808632D01*
X143220858Y-68939154D01*
X143059954Y-69100058D01*
X142929432Y-69286465D01*
X142929431Y-69286467D01*
X142833261Y-69492702D01*
X142833258Y-69492711D01*
X142774366Y-69712502D01*
X142774364Y-69712513D01*
X142754532Y-69939198D01*
X142754532Y-69939201D01*
X142774364Y-70165886D01*
X142774366Y-70165897D01*
X142833258Y-70385688D01*
X142833261Y-70385697D01*
X142929431Y-70591931D01*
X142929432Y-70591934D01*
X143059954Y-70778341D01*
X143220858Y-70939245D01*
X143220861Y-70939247D01*
X143407266Y-71069768D01*
X143465275Y-71096818D01*
X143517714Y-71142991D01*
X143536866Y-71210184D01*
X143516650Y-71277065D01*
X143465275Y-71321582D01*
X143407267Y-71348631D01*
X143407265Y-71348632D01*
X143220858Y-71479154D01*
X143059954Y-71640058D01*
X142929432Y-71826465D01*
X142929431Y-71826467D01*
X142833261Y-72032702D01*
X142833258Y-72032711D01*
X142774366Y-72252502D01*
X142774364Y-72252513D01*
X142754532Y-72479198D01*
X142754532Y-72479201D01*
X142774364Y-72705886D01*
X142774366Y-72705897D01*
X142833258Y-72925688D01*
X142833261Y-72925697D01*
X142929431Y-73131932D01*
X142929432Y-73131934D01*
X143059954Y-73318341D01*
X143220858Y-73479245D01*
X143220861Y-73479247D01*
X143407266Y-73609768D01*
X143465275Y-73636818D01*
X143517714Y-73682991D01*
X143536866Y-73750184D01*
X143516650Y-73817065D01*
X143465275Y-73861582D01*
X143407267Y-73888631D01*
X143407265Y-73888632D01*
X143220858Y-74019154D01*
X143059954Y-74180058D01*
X142929432Y-74366465D01*
X142929431Y-74366467D01*
X142833261Y-74572702D01*
X142833258Y-74572711D01*
X142774366Y-74792502D01*
X142774364Y-74792513D01*
X142754532Y-75019198D01*
X142754532Y-75019201D01*
X142774364Y-75245886D01*
X142774366Y-75245897D01*
X142833258Y-75465688D01*
X142833261Y-75465697D01*
X142929431Y-75671932D01*
X142929432Y-75671934D01*
X143059954Y-75858341D01*
X143220858Y-76019245D01*
X143220861Y-76019247D01*
X143407266Y-76149768D01*
X143465275Y-76176818D01*
X143517714Y-76222991D01*
X143536866Y-76290184D01*
X143516650Y-76357065D01*
X143465275Y-76401582D01*
X143407267Y-76428631D01*
X143407265Y-76428632D01*
X143220858Y-76559154D01*
X143059954Y-76720058D01*
X142929432Y-76906465D01*
X142929431Y-76906467D01*
X142833261Y-77112702D01*
X142833258Y-77112711D01*
X142774366Y-77332502D01*
X142774364Y-77332513D01*
X142754532Y-77559198D01*
X142754532Y-77559201D01*
X142774364Y-77785886D01*
X142774366Y-77785897D01*
X142833258Y-78005688D01*
X142833261Y-78005697D01*
X142929431Y-78211932D01*
X142929432Y-78211934D01*
X143059954Y-78398341D01*
X143220858Y-78559245D01*
X143220861Y-78559247D01*
X143407266Y-78689768D01*
X143465275Y-78716818D01*
X143517714Y-78762991D01*
X143536866Y-78830184D01*
X143516650Y-78897065D01*
X143465275Y-78941582D01*
X143407267Y-78968631D01*
X143407265Y-78968632D01*
X143220858Y-79099154D01*
X143059954Y-79260058D01*
X142929432Y-79446465D01*
X142929431Y-79446467D01*
X142833261Y-79652702D01*
X142833258Y-79652711D01*
X142774366Y-79872502D01*
X142774364Y-79872513D01*
X142754532Y-80099198D01*
X142754532Y-80099201D01*
X142774364Y-80325886D01*
X142774366Y-80325897D01*
X142833258Y-80545688D01*
X142833261Y-80545697D01*
X142929431Y-80751932D01*
X142929432Y-80751934D01*
X143059954Y-80938341D01*
X143220858Y-81099245D01*
X143220861Y-81099247D01*
X143407266Y-81229768D01*
X143465275Y-81256818D01*
X143517714Y-81302991D01*
X143536866Y-81370184D01*
X143516650Y-81437065D01*
X143465275Y-81481582D01*
X143407267Y-81508631D01*
X143407265Y-81508632D01*
X143220858Y-81639154D01*
X143059954Y-81800058D01*
X142929432Y-81986465D01*
X142929431Y-81986467D01*
X142833261Y-82192702D01*
X142833258Y-82192711D01*
X142774366Y-82412502D01*
X142774364Y-82412513D01*
X142754532Y-82639198D01*
X142754532Y-82639201D01*
X142774364Y-82865886D01*
X142774366Y-82865897D01*
X142833258Y-83085688D01*
X142833261Y-83085697D01*
X142929431Y-83291932D01*
X142929432Y-83291934D01*
X143059954Y-83478341D01*
X143220858Y-83639245D01*
X143220861Y-83639247D01*
X143407266Y-83769768D01*
X143465275Y-83796818D01*
X143517714Y-83842991D01*
X143536866Y-83910184D01*
X143516650Y-83977065D01*
X143465275Y-84021582D01*
X143407267Y-84048631D01*
X143407265Y-84048632D01*
X143220858Y-84179154D01*
X143059954Y-84340058D01*
X142929432Y-84526465D01*
X142929431Y-84526467D01*
X142833261Y-84732702D01*
X142833258Y-84732711D01*
X142774366Y-84952502D01*
X142774364Y-84952513D01*
X142754532Y-85179198D01*
X142754532Y-85179201D01*
X142774364Y-85405886D01*
X142774366Y-85405897D01*
X142833258Y-85625688D01*
X142833261Y-85625697D01*
X142929431Y-85831932D01*
X142929432Y-85831934D01*
X143059954Y-86018341D01*
X143220858Y-86179245D01*
X143220861Y-86179247D01*
X143407266Y-86309768D01*
X143465275Y-86336818D01*
X143517714Y-86382991D01*
X143536866Y-86450184D01*
X143516650Y-86517065D01*
X143465275Y-86561582D01*
X143407267Y-86588631D01*
X143407265Y-86588632D01*
X143220858Y-86719154D01*
X143059954Y-86880058D01*
X142929432Y-87066465D01*
X142929431Y-87066467D01*
X142833261Y-87272702D01*
X142833258Y-87272711D01*
X142774366Y-87492502D01*
X142774364Y-87492513D01*
X142754532Y-87719198D01*
X142754532Y-87719201D01*
X142774364Y-87945886D01*
X142774366Y-87945897D01*
X142833258Y-88165688D01*
X142833261Y-88165697D01*
X142929431Y-88371932D01*
X142929432Y-88371934D01*
X143059954Y-88558341D01*
X143220858Y-88719245D01*
X143267693Y-88752039D01*
X143407266Y-88849768D01*
X143465275Y-88876818D01*
X143517714Y-88922991D01*
X143536866Y-88990184D01*
X143516650Y-89057065D01*
X143465275Y-89101582D01*
X143407267Y-89128631D01*
X143407265Y-89128632D01*
X143220858Y-89259154D01*
X143059954Y-89420058D01*
X142961456Y-89560730D01*
X142906879Y-89604355D01*
X142837381Y-89611549D01*
X142775026Y-89580026D01*
X142739612Y-89519797D01*
X142736228Y-89498872D01*
X142734886Y-89480973D01*
X142734886Y-89480971D01*
X142674857Y-89217966D01*
X142674851Y-89217947D01*
X142576290Y-88966818D01*
X142576291Y-88966818D01*
X142441397Y-88733177D01*
X142387704Y-88665847D01*
X141665846Y-89387705D01*
X141658951Y-89371058D01*
X141571401Y-89240030D01*
X141459970Y-89128599D01*
X141328942Y-89041049D01*
X141312294Y-89034153D01*
X142035150Y-88311296D01*
X141852517Y-88186779D01*
X141852516Y-88186778D01*
X141609460Y-88069730D01*
X141609462Y-88069730D01*
X141351662Y-87990209D01*
X141351656Y-87990207D01*
X141084898Y-87950000D01*
X140815101Y-87950000D01*
X140548343Y-87990207D01*
X140548337Y-87990209D01*
X140290538Y-88069730D01*
X140047485Y-88186778D01*
X140047476Y-88186783D01*
X139864848Y-88311296D01*
X140587705Y-89034153D01*
X140571058Y-89041049D01*
X140440030Y-89128599D01*
X140328599Y-89240030D01*
X140241049Y-89371058D01*
X140234153Y-89387706D01*
X139512295Y-88665848D01*
X139458600Y-88733180D01*
X139323709Y-88966818D01*
X139225148Y-89217947D01*
X139225142Y-89217966D01*
X139165113Y-89480971D01*
X139165113Y-89480973D01*
X139144953Y-89749995D01*
X139144953Y-89750004D01*
X139165113Y-90019026D01*
X139165113Y-90019028D01*
X139225142Y-90282033D01*
X139225148Y-90282052D01*
X139323709Y-90533181D01*
X139323708Y-90533181D01*
X139458599Y-90766817D01*
X139470988Y-90782353D01*
X139497395Y-90847040D01*
X139484637Y-90915735D01*
X139436766Y-90966628D01*
X139368979Y-90983561D01*
X139341949Y-90979439D01*
X139256677Y-90956591D01*
X139215939Y-90951227D01*
X139012934Y-90924500D01*
X139012927Y-90924500D01*
X138767073Y-90924500D01*
X138767065Y-90924500D01*
X138535059Y-90955045D01*
X138523323Y-90956591D01*
X138373458Y-90996747D01*
X138285847Y-91020222D01*
X138285837Y-91020225D01*
X138058714Y-91114303D01*
X138058705Y-91114307D01*
X137845787Y-91237236D01*
X137650745Y-91386897D01*
X137650738Y-91386903D01*
X137476903Y-91560738D01*
X137476897Y-91560745D01*
X137327236Y-91755787D01*
X137204307Y-91968705D01*
X137204303Y-91968714D01*
X137110225Y-92195837D01*
X137110222Y-92195847D01*
X137046592Y-92433320D01*
X137046590Y-92433331D01*
X137014500Y-92677065D01*
X137014500Y-92922934D01*
X137040440Y-93119953D01*
X137046591Y-93166677D01*
X137101805Y-93372740D01*
X137110222Y-93404152D01*
X137110225Y-93404162D01*
X137204303Y-93631285D01*
X137204307Y-93631294D01*
X137208376Y-93638341D01*
X137327233Y-93844208D01*
X137327235Y-93844211D01*
X137327236Y-93844212D01*
X137476897Y-94039254D01*
X137476903Y-94039261D01*
X137650738Y-94213096D01*
X137650744Y-94213101D01*
X137845792Y-94362767D01*
X138058708Y-94485694D01*
X138285847Y-94579778D01*
X138523323Y-94643409D01*
X138767073Y-94675500D01*
X138767078Y-94675500D01*
X138770595Y-94675963D01*
X138834492Y-94704229D01*
X138872963Y-94762554D01*
X138873794Y-94832419D01*
X138836722Y-94891642D01*
X138813429Y-94907956D01*
X138706679Y-94965727D01*
X138706668Y-94965734D01*
X138517641Y-95112860D01*
X138517631Y-95112869D01*
X138355385Y-95289116D01*
X138224362Y-95489663D01*
X138128136Y-95709036D01*
X138069328Y-95941262D01*
X138069326Y-95941270D01*
X138049546Y-96179993D01*
X138049546Y-96180006D01*
X138069326Y-96418729D01*
X138069328Y-96418740D01*
X138079562Y-96459151D01*
X138076937Y-96528971D01*
X138036981Y-96586289D01*
X137972379Y-96612905D01*
X137903643Y-96600370D01*
X137883194Y-96587444D01*
X137753057Y-96486154D01*
X137753046Y-96486147D01*
X137542445Y-96372176D01*
X137542431Y-96372170D01*
X137315944Y-96294416D01*
X137079735Y-96255000D01*
X136840265Y-96255000D01*
X136604055Y-96294416D01*
X136377568Y-96372170D01*
X136377559Y-96372173D01*
X136166946Y-96486152D01*
X136129135Y-96515580D01*
X136129135Y-96515582D01*
X136875497Y-97261944D01*
X136788236Y-97285326D01*
X136686764Y-97343911D01*
X136603911Y-97426764D01*
X136545326Y-97528236D01*
X136521944Y-97615498D01*
X135776299Y-96869853D01*
X135684804Y-97009899D01*
X135588610Y-97229200D01*
X135529822Y-97461349D01*
X135510048Y-97699993D01*
X135510048Y-97700006D01*
X135529822Y-97938650D01*
X135588610Y-98170799D01*
X135684804Y-98390100D01*
X135776299Y-98530144D01*
X136521944Y-97784501D01*
X136545326Y-97871764D01*
X136603911Y-97973236D01*
X136686764Y-98056089D01*
X136788236Y-98114674D01*
X136875497Y-98138055D01*
X136129135Y-98884417D01*
X136129135Y-98884418D01*
X136166950Y-98913850D01*
X136166953Y-98913852D01*
X136377554Y-99027823D01*
X136377568Y-99027829D01*
X136604055Y-99105583D01*
X136840265Y-99145000D01*
X137079735Y-99145000D01*
X137315944Y-99105583D01*
X137542431Y-99027829D01*
X137542445Y-99027823D01*
X137753045Y-98913853D01*
X137753050Y-98913849D01*
X137790863Y-98884418D01*
X137790863Y-98884417D01*
X137044503Y-98138055D01*
X137131764Y-98114674D01*
X137233236Y-98056089D01*
X137316089Y-97973236D01*
X137374674Y-97871764D01*
X137398055Y-97784502D01*
X138143698Y-98530145D01*
X138235194Y-98390102D01*
X138331389Y-98170799D01*
X138390177Y-97938650D01*
X138409952Y-97700006D01*
X138409952Y-97699993D01*
X138390177Y-97461346D01*
X138379995Y-97421139D01*
X138382619Y-97351318D01*
X138422574Y-97294000D01*
X138487175Y-97267383D01*
X138555911Y-97279917D01*
X138576362Y-97292844D01*
X138706668Y-97394265D01*
X138706674Y-97394269D01*
X138706677Y-97394271D01*
X138777691Y-97432702D01*
X138916599Y-97507876D01*
X138917359Y-97508287D01*
X139143935Y-97586070D01*
X139380222Y-97625500D01*
X139380223Y-97625500D01*
X139619777Y-97625500D01*
X139619778Y-97625500D01*
X139856065Y-97586070D01*
X140082641Y-97508287D01*
X140293323Y-97394271D01*
X140299217Y-97389684D01*
X140358026Y-97343911D01*
X140482366Y-97247134D01*
X140644612Y-97070887D01*
X140775636Y-96870340D01*
X140871864Y-96650962D01*
X140930672Y-96418737D01*
X140930673Y-96418729D01*
X140950454Y-96180006D01*
X140950454Y-96179993D01*
X140930673Y-95941270D01*
X140930671Y-95941259D01*
X140893008Y-95792532D01*
X140895633Y-95722712D01*
X140925531Y-95674413D01*
X141963927Y-94636019D01*
X142025250Y-94602534D01*
X142051608Y-94599700D01*
X142775250Y-94599700D01*
X142842289Y-94619385D01*
X142888044Y-94672189D01*
X142897988Y-94741347D01*
X142887632Y-94776105D01*
X142833262Y-94892702D01*
X142833258Y-94892711D01*
X142774366Y-95112502D01*
X142774364Y-95112513D01*
X142754532Y-95339198D01*
X142754532Y-95339201D01*
X142774364Y-95565886D01*
X142774366Y-95565897D01*
X142833258Y-95785688D01*
X142833261Y-95785697D01*
X142929431Y-95991932D01*
X142929432Y-95991934D01*
X143059954Y-96178341D01*
X143220858Y-96339245D01*
X143220861Y-96339247D01*
X143407266Y-96469768D01*
X143442406Y-96486154D01*
X143465275Y-96496818D01*
X143517714Y-96542991D01*
X143536866Y-96610184D01*
X143516650Y-96677065D01*
X143465275Y-96721582D01*
X143407267Y-96748631D01*
X143407265Y-96748632D01*
X143220858Y-96879154D01*
X143059954Y-97040058D01*
X142929432Y-97226465D01*
X142929431Y-97226467D01*
X142833261Y-97432702D01*
X142833258Y-97432711D01*
X142774366Y-97652502D01*
X142774364Y-97652513D01*
X142754532Y-97879198D01*
X142754532Y-97879201D01*
X142774364Y-98105886D01*
X142774366Y-98105897D01*
X142833258Y-98325688D01*
X142833261Y-98325697D01*
X142929431Y-98531932D01*
X142929432Y-98531934D01*
X143059954Y-98718341D01*
X143220858Y-98879245D01*
X143228246Y-98884418D01*
X143407266Y-99009768D01*
X143465865Y-99037093D01*
X143518305Y-99083265D01*
X143537457Y-99150458D01*
X143517242Y-99217339D01*
X143465867Y-99261857D01*
X143407513Y-99289068D01*
X143407512Y-99289068D01*
X143334526Y-99340173D01*
X143334526Y-99340174D01*
X143889765Y-99895412D01*
X143847708Y-99906682D01*
X143722292Y-99979090D01*
X143619890Y-100081492D01*
X143547482Y-100206908D01*
X143536212Y-100248964D01*
X142980974Y-99693726D01*
X142980973Y-99693726D01*
X142929868Y-99766712D01*
X142929866Y-99766716D01*
X142833734Y-99972873D01*
X142833730Y-99972882D01*
X142774860Y-100192589D01*
X142774858Y-100192600D01*
X142755034Y-100419197D01*
X142755034Y-100419202D01*
X142774858Y-100645799D01*
X142774860Y-100645810D01*
X142833730Y-100865517D01*
X142833735Y-100865531D01*
X142929863Y-101071678D01*
X142980974Y-101144672D01*
X143536212Y-100589434D01*
X143547482Y-100631492D01*
X143619890Y-100756908D01*
X143722292Y-100859310D01*
X143847708Y-100931718D01*
X143889765Y-100942987D01*
X143334526Y-101498225D01*
X143407513Y-101549332D01*
X143407521Y-101549336D01*
X143465864Y-101576542D01*
X143518304Y-101622714D01*
X143537456Y-101689907D01*
X143517241Y-101756789D01*
X143465866Y-101801305D01*
X143407272Y-101828628D01*
X143407265Y-101828632D01*
X143220858Y-101959154D01*
X143059954Y-102120058D01*
X142929432Y-102306465D01*
X142929431Y-102306467D01*
X142833261Y-102512702D01*
X142833258Y-102512711D01*
X142774366Y-102732502D01*
X142774364Y-102732513D01*
X142754532Y-102959198D01*
X142754532Y-102959201D01*
X142774364Y-103185886D01*
X142774366Y-103185897D01*
X142833258Y-103405688D01*
X142833261Y-103405697D01*
X142929431Y-103611932D01*
X142929432Y-103611934D01*
X143059954Y-103798341D01*
X143220858Y-103959245D01*
X143220861Y-103959247D01*
X143356016Y-104053883D01*
X143384640Y-104073925D01*
X143428265Y-104128501D01*
X143435459Y-104198000D01*
X143403937Y-104260355D01*
X143343707Y-104295769D01*
X143313517Y-104299500D01*
X115224500Y-104299500D01*
X115157461Y-104279815D01*
X115111706Y-104227011D01*
X115100500Y-104175500D01*
X115100500Y-99565186D01*
X117299500Y-99565186D01*
X117299500Y-99834813D01*
X117329686Y-100102719D01*
X117329688Y-100102731D01*
X117389684Y-100365594D01*
X117389687Y-100365602D01*
X117478734Y-100620082D01*
X117595714Y-100862994D01*
X117595716Y-100862997D01*
X117739162Y-101091289D01*
X117907266Y-101302085D01*
X118097915Y-101492734D01*
X118308711Y-101660838D01*
X118532262Y-101801305D01*
X118537005Y-101804285D01*
X118552625Y-101811807D01*
X118779921Y-101921267D01*
X118971049Y-101988145D01*
X119034397Y-102010312D01*
X119034405Y-102010315D01*
X119034408Y-102010315D01*
X119034409Y-102010316D01*
X119297268Y-102070312D01*
X119565187Y-102100499D01*
X119565188Y-102100500D01*
X119565191Y-102100500D01*
X119834812Y-102100500D01*
X119834812Y-102100499D01*
X120102732Y-102070312D01*
X120365591Y-102010316D01*
X120620079Y-101921267D01*
X120862997Y-101804284D01*
X121091289Y-101660838D01*
X121302085Y-101492734D01*
X121492734Y-101302085D01*
X121660838Y-101091289D01*
X121804284Y-100862997D01*
X121921267Y-100620079D01*
X122010316Y-100365591D01*
X122070312Y-100102732D01*
X122100500Y-99834809D01*
X122100500Y-99565191D01*
X122070312Y-99297268D01*
X122010316Y-99034409D01*
X122008173Y-99028286D01*
X121968131Y-98913852D01*
X121921267Y-98779921D01*
X121804284Y-98537003D01*
X121660838Y-98308711D01*
X121492734Y-98097915D01*
X121302085Y-97907266D01*
X121091289Y-97739162D01*
X121028952Y-97699993D01*
X125399546Y-97699993D01*
X125399546Y-97700006D01*
X125419326Y-97938729D01*
X125419328Y-97938737D01*
X125478136Y-98170963D01*
X125574362Y-98390336D01*
X125574364Y-98390340D01*
X125641109Y-98492500D01*
X125676224Y-98546249D01*
X125705388Y-98590887D01*
X125867634Y-98767134D01*
X125884058Y-98779917D01*
X126056668Y-98914265D01*
X126056674Y-98914269D01*
X126056677Y-98914271D01*
X126229542Y-99007821D01*
X126266501Y-99027823D01*
X126267359Y-99028287D01*
X126493935Y-99106070D01*
X126730222Y-99145500D01*
X126730223Y-99145500D01*
X126969777Y-99145500D01*
X126969778Y-99145500D01*
X127206065Y-99106070D01*
X127432641Y-99028287D01*
X127643323Y-98914271D01*
X127643862Y-98913852D01*
X127688325Y-98879245D01*
X127832366Y-98767134D01*
X127994612Y-98590887D01*
X128125636Y-98390340D01*
X128221864Y-98170962D01*
X128280672Y-97938737D01*
X128280673Y-97938729D01*
X128300454Y-97700006D01*
X128300454Y-97699993D01*
X128280673Y-97461270D01*
X128280671Y-97461262D01*
X128273440Y-97432704D01*
X128270638Y-97421638D01*
X128273262Y-97351818D01*
X128313217Y-97294500D01*
X128377818Y-97267883D01*
X128446555Y-97280417D01*
X128467000Y-97293340D01*
X128531974Y-97343911D01*
X128590783Y-97389684D01*
X128596677Y-97394271D01*
X128667691Y-97432702D01*
X128806599Y-97507876D01*
X128807359Y-97508287D01*
X129033935Y-97586070D01*
X129270222Y-97625500D01*
X129270223Y-97625500D01*
X129509777Y-97625500D01*
X129509778Y-97625500D01*
X129746065Y-97586070D01*
X129972641Y-97508287D01*
X130183323Y-97394271D01*
X130189217Y-97389684D01*
X130248026Y-97343911D01*
X130372366Y-97247134D01*
X130534612Y-97070887D01*
X130665636Y-96870340D01*
X130761864Y-96650962D01*
X130820672Y-96418737D01*
X130820673Y-96418729D01*
X130840454Y-96180006D01*
X130840454Y-96179993D01*
X130820673Y-95941270D01*
X130820672Y-95941267D01*
X130820672Y-95941263D01*
X130761864Y-95709038D01*
X130665636Y-95489660D01*
X130534612Y-95289113D01*
X130372366Y-95112866D01*
X130342882Y-95089918D01*
X130183331Y-94965734D01*
X130183325Y-94965730D01*
X129972642Y-94851713D01*
X129972637Y-94851711D01*
X129746067Y-94773930D01*
X129550809Y-94741347D01*
X129509778Y-94734500D01*
X129270222Y-94734500D01*
X129229191Y-94741347D01*
X129033932Y-94773930D01*
X128807362Y-94851711D01*
X128807357Y-94851713D01*
X128596674Y-94965730D01*
X128596668Y-94965734D01*
X128407641Y-95112860D01*
X128407631Y-95112869D01*
X128245385Y-95289116D01*
X128114362Y-95489663D01*
X128018136Y-95709036D01*
X127959328Y-95941262D01*
X127959326Y-95941270D01*
X127939546Y-96179993D01*
X127939546Y-96180006D01*
X127959326Y-96418729D01*
X127959328Y-96418741D01*
X127969362Y-96458362D01*
X127966736Y-96528183D01*
X127926780Y-96585500D01*
X127862179Y-96612116D01*
X127793443Y-96599581D01*
X127772994Y-96586655D01*
X127643331Y-96485734D01*
X127643325Y-96485730D01*
X127432642Y-96371713D01*
X127432637Y-96371711D01*
X127206067Y-96293930D01*
X127048540Y-96267643D01*
X126969778Y-96254500D01*
X126730222Y-96254500D01*
X126671150Y-96264357D01*
X126493932Y-96293930D01*
X126267362Y-96371711D01*
X126267357Y-96371713D01*
X126056674Y-96485730D01*
X126056668Y-96485734D01*
X125867641Y-96632860D01*
X125867631Y-96632869D01*
X125705385Y-96809116D01*
X125574362Y-97009663D01*
X125478136Y-97229036D01*
X125419328Y-97461262D01*
X125419326Y-97461270D01*
X125399546Y-97699993D01*
X121028952Y-97699993D01*
X120862997Y-97595716D01*
X120862994Y-97595714D01*
X120620082Y-97478734D01*
X120365602Y-97389687D01*
X120365594Y-97389684D01*
X120165047Y-97343911D01*
X120102732Y-97329688D01*
X120102728Y-97329687D01*
X120102719Y-97329686D01*
X119834813Y-97299500D01*
X119834809Y-97299500D01*
X119565191Y-97299500D01*
X119565186Y-97299500D01*
X119297280Y-97329686D01*
X119297268Y-97329688D01*
X119034405Y-97389684D01*
X119034397Y-97389687D01*
X118779917Y-97478734D01*
X118537005Y-97595714D01*
X118308712Y-97739161D01*
X118097915Y-97907265D01*
X117907265Y-98097915D01*
X117739161Y-98308712D01*
X117595714Y-98537005D01*
X117478734Y-98779917D01*
X117389687Y-99034397D01*
X117389684Y-99034405D01*
X117329688Y-99297268D01*
X117329686Y-99297280D01*
X117299500Y-99565186D01*
X115100500Y-99565186D01*
X115100500Y-89749995D01*
X123594953Y-89749995D01*
X123594953Y-89750004D01*
X123615113Y-90019026D01*
X123615113Y-90019028D01*
X123675142Y-90282033D01*
X123675148Y-90282052D01*
X123773709Y-90533181D01*
X123773708Y-90533181D01*
X123908602Y-90766822D01*
X123962294Y-90834151D01*
X123962295Y-90834151D01*
X124684153Y-90112293D01*
X124691049Y-90128942D01*
X124778599Y-90259970D01*
X124890030Y-90371401D01*
X125021058Y-90458951D01*
X125037705Y-90465846D01*
X124314848Y-91188702D01*
X124497483Y-91313220D01*
X124497485Y-91313221D01*
X124740539Y-91430269D01*
X124740537Y-91430269D01*
X124998337Y-91509790D01*
X124998343Y-91509792D01*
X125265101Y-91549999D01*
X125265110Y-91550000D01*
X125534890Y-91550000D01*
X125534898Y-91549999D01*
X125801656Y-91509792D01*
X125801658Y-91509791D01*
X125802380Y-91509569D01*
X125802650Y-91509565D01*
X125806183Y-91508759D01*
X125806355Y-91509514D01*
X125872243Y-91508606D01*
X125931536Y-91545566D01*
X125961434Y-91608716D01*
X125952445Y-91678005D01*
X125937328Y-91703538D01*
X125897235Y-91755788D01*
X125774307Y-91968705D01*
X125774303Y-91968714D01*
X125680225Y-92195837D01*
X125680222Y-92195847D01*
X125616592Y-92433320D01*
X125616590Y-92433331D01*
X125584500Y-92677065D01*
X125584500Y-92922934D01*
X125610440Y-93119953D01*
X125616591Y-93166677D01*
X125671805Y-93372740D01*
X125680222Y-93404152D01*
X125680225Y-93404162D01*
X125774303Y-93631285D01*
X125774307Y-93631294D01*
X125778376Y-93638341D01*
X125897233Y-93844208D01*
X125897235Y-93844211D01*
X125897236Y-93844212D01*
X126046897Y-94039254D01*
X126046903Y-94039261D01*
X126220738Y-94213096D01*
X126220744Y-94213101D01*
X126415792Y-94362767D01*
X126628708Y-94485694D01*
X126855847Y-94579778D01*
X127093323Y-94643409D01*
X127337073Y-94675500D01*
X127337080Y-94675500D01*
X127582920Y-94675500D01*
X127582927Y-94675500D01*
X127826677Y-94643409D01*
X128064153Y-94579778D01*
X128291292Y-94485694D01*
X128504208Y-94362767D01*
X128699256Y-94213101D01*
X128873101Y-94039256D01*
X129022767Y-93844208D01*
X129145694Y-93631292D01*
X129239778Y-93404153D01*
X129303409Y-93166677D01*
X129335500Y-92922927D01*
X129335500Y-92677073D01*
X129303409Y-92433323D01*
X129239778Y-92195847D01*
X129145694Y-91968708D01*
X129022767Y-91755792D01*
X128920208Y-91622135D01*
X128873102Y-91560745D01*
X128873096Y-91560738D01*
X128699261Y-91386903D01*
X128699254Y-91386897D01*
X128504212Y-91237236D01*
X128504211Y-91237235D01*
X128504208Y-91237233D01*
X128324544Y-91133504D01*
X128291294Y-91114307D01*
X128291285Y-91114303D01*
X128064162Y-91020225D01*
X128064155Y-91020223D01*
X128064153Y-91020222D01*
X127826677Y-90956591D01*
X127785939Y-90951227D01*
X127582934Y-90924500D01*
X127582927Y-90924500D01*
X127337073Y-90924500D01*
X127337065Y-90924500D01*
X127105059Y-90955045D01*
X127093323Y-90956591D01*
X127008052Y-90979438D01*
X126938203Y-90977776D01*
X126880341Y-90938613D01*
X126852837Y-90874384D01*
X126864424Y-90805482D01*
X126879014Y-90782350D01*
X126891399Y-90766819D01*
X127026290Y-90533181D01*
X127124851Y-90282052D01*
X127124857Y-90282033D01*
X127184886Y-90019028D01*
X127184886Y-90019026D01*
X127205047Y-89750004D01*
X127205047Y-89749995D01*
X127184886Y-89480973D01*
X127184886Y-89480971D01*
X127124857Y-89217966D01*
X127124851Y-89217947D01*
X127026290Y-88966818D01*
X127026291Y-88966818D01*
X126891397Y-88733177D01*
X126837704Y-88665847D01*
X126115846Y-89387705D01*
X126108951Y-89371058D01*
X126021401Y-89240030D01*
X125909970Y-89128599D01*
X125778942Y-89041049D01*
X125762294Y-89034153D01*
X126485150Y-88311296D01*
X126302517Y-88186779D01*
X126302516Y-88186778D01*
X126059460Y-88069730D01*
X126059462Y-88069730D01*
X125801662Y-87990209D01*
X125801656Y-87990207D01*
X125534898Y-87950000D01*
X125265101Y-87950000D01*
X124998343Y-87990207D01*
X124998337Y-87990209D01*
X124740538Y-88069730D01*
X124497485Y-88186778D01*
X124497476Y-88186783D01*
X124314848Y-88311296D01*
X125037705Y-89034153D01*
X125021058Y-89041049D01*
X124890030Y-89128599D01*
X124778599Y-89240030D01*
X124691049Y-89371058D01*
X124684153Y-89387706D01*
X123962295Y-88665848D01*
X123908600Y-88733180D01*
X123773709Y-88966818D01*
X123675148Y-89217947D01*
X123675142Y-89217966D01*
X123615113Y-89480971D01*
X123615113Y-89480973D01*
X123594953Y-89749995D01*
X115100500Y-89749995D01*
X115100500Y-85462135D01*
X127279500Y-85462135D01*
X127279500Y-87457870D01*
X127279501Y-87457876D01*
X127285908Y-87517483D01*
X127336202Y-87652328D01*
X127336206Y-87652335D01*
X127422452Y-87767544D01*
X127422455Y-87767547D01*
X127537664Y-87853793D01*
X127537671Y-87853797D01*
X127672517Y-87904091D01*
X127672516Y-87904091D01*
X127679444Y-87904835D01*
X127732127Y-87910500D01*
X129727872Y-87910499D01*
X129787483Y-87904091D01*
X129922331Y-87853796D01*
X130037546Y-87767546D01*
X130123796Y-87652331D01*
X130130019Y-87635647D01*
X130135981Y-87619662D01*
X130177851Y-87563728D01*
X130243315Y-87539310D01*
X130311588Y-87554161D01*
X130328321Y-87565137D01*
X130418911Y-87635647D01*
X130470002Y-87675413D01*
X130473933Y-87678472D01*
X130685344Y-87792882D01*
X130685347Y-87792883D01*
X130912699Y-87870933D01*
X130912701Y-87870933D01*
X130912703Y-87870934D01*
X131149808Y-87910500D01*
X131149809Y-87910500D01*
X131390191Y-87910500D01*
X131390192Y-87910500D01*
X131627297Y-87870934D01*
X131854656Y-87792882D01*
X132066067Y-87678472D01*
X132078083Y-87669120D01*
X132203113Y-87571805D01*
X132255764Y-87530825D01*
X132418571Y-87353969D01*
X132436193Y-87326995D01*
X132489337Y-87281641D01*
X132558568Y-87272217D01*
X132621904Y-87301718D01*
X132643804Y-87326992D01*
X132661429Y-87353969D01*
X132824236Y-87530825D01*
X132824239Y-87530827D01*
X132824242Y-87530830D01*
X133013924Y-87678466D01*
X133013930Y-87678470D01*
X133013933Y-87678472D01*
X133225344Y-87792882D01*
X133225347Y-87792883D01*
X133452699Y-87870933D01*
X133452701Y-87870933D01*
X133452703Y-87870934D01*
X133689808Y-87910500D01*
X133689809Y-87910500D01*
X133930191Y-87910500D01*
X133930192Y-87910500D01*
X134167297Y-87870934D01*
X134394656Y-87792882D01*
X134606067Y-87678472D01*
X134618083Y-87669120D01*
X134743113Y-87571805D01*
X134795764Y-87530825D01*
X134958571Y-87353969D01*
X134976193Y-87326995D01*
X135029337Y-87281641D01*
X135098568Y-87272217D01*
X135161904Y-87301718D01*
X135183804Y-87326992D01*
X135201429Y-87353969D01*
X135364236Y-87530825D01*
X135364239Y-87530827D01*
X135364242Y-87530830D01*
X135553924Y-87678466D01*
X135553930Y-87678470D01*
X135553933Y-87678472D01*
X135765344Y-87792882D01*
X135765347Y-87792883D01*
X135992699Y-87870933D01*
X135992701Y-87870933D01*
X135992703Y-87870934D01*
X136229808Y-87910500D01*
X136229809Y-87910500D01*
X136470191Y-87910500D01*
X136470192Y-87910500D01*
X136707297Y-87870934D01*
X136934656Y-87792882D01*
X137146067Y-87678472D01*
X137158083Y-87669120D01*
X137283113Y-87571805D01*
X137335764Y-87530825D01*
X137498571Y-87353969D01*
X137630049Y-87152728D01*
X137726610Y-86932591D01*
X137785620Y-86699563D01*
X137797054Y-86561582D01*
X137805471Y-86460005D01*
X137805471Y-86459994D01*
X137790001Y-86273308D01*
X137785620Y-86220437D01*
X137726610Y-85987409D01*
X137630049Y-85767272D01*
X137619999Y-85751890D01*
X137495821Y-85561822D01*
X137475633Y-85494933D01*
X137494812Y-85427747D01*
X137547271Y-85381596D01*
X137599629Y-85370000D01*
X137740149Y-85370000D01*
X137977176Y-85330446D01*
X138204449Y-85252423D01*
X138204455Y-85252421D01*
X138415794Y-85138049D01*
X138415795Y-85138048D01*
X138454426Y-85107980D01*
X138454427Y-85107979D01*
X137708585Y-84362138D01*
X137793694Y-84339333D01*
X137896306Y-84280090D01*
X137980090Y-84196306D01*
X138039333Y-84093694D01*
X138062137Y-84008585D01*
X138807310Y-84753758D01*
X138899608Y-84612485D01*
X138996134Y-84392428D01*
X139055125Y-84159476D01*
X139074969Y-83920005D01*
X139074969Y-83919994D01*
X139055125Y-83680523D01*
X138996134Y-83447571D01*
X138899607Y-83227511D01*
X138807310Y-83086240D01*
X138062137Y-83831414D01*
X138039333Y-83746306D01*
X137980090Y-83643694D01*
X137896306Y-83559910D01*
X137793694Y-83500667D01*
X137708585Y-83477862D01*
X138454426Y-82732019D01*
X138454426Y-82732017D01*
X138415801Y-82701954D01*
X138415795Y-82701950D01*
X138204455Y-82587578D01*
X138204449Y-82587576D01*
X137977176Y-82509553D01*
X137740149Y-82470000D01*
X137499851Y-82470000D01*
X137262823Y-82509553D01*
X137035550Y-82587576D01*
X137035544Y-82587578D01*
X136824209Y-82701948D01*
X136785571Y-82732019D01*
X137531414Y-83477861D01*
X137446306Y-83500667D01*
X137343694Y-83559910D01*
X137259910Y-83643694D01*
X137200667Y-83746306D01*
X137177861Y-83831414D01*
X136432687Y-83086240D01*
X136413338Y-83088247D01*
X136400953Y-83098816D01*
X136331722Y-83108236D01*
X136268387Y-83078731D01*
X136246491Y-83053459D01*
X136228571Y-83026031D01*
X136065764Y-82849175D01*
X136065759Y-82849171D01*
X136065757Y-82849169D01*
X135876075Y-82701533D01*
X135876069Y-82701529D01*
X135664657Y-82587118D01*
X135664652Y-82587116D01*
X135437300Y-82509066D01*
X135259468Y-82479391D01*
X135200192Y-82469500D01*
X134959808Y-82469500D01*
X134912387Y-82477413D01*
X134722699Y-82509066D01*
X134495347Y-82587116D01*
X134495342Y-82587118D01*
X134283930Y-82701529D01*
X134283924Y-82701533D01*
X134094242Y-82849169D01*
X134094239Y-82849172D01*
X134094236Y-82849174D01*
X134094236Y-82849175D01*
X134078847Y-82865892D01*
X133931430Y-83026029D01*
X133931429Y-83026031D01*
X133913807Y-83053003D01*
X133860660Y-83098358D01*
X133791429Y-83107780D01*
X133728093Y-83078277D01*
X133706193Y-83053003D01*
X133704154Y-83049883D01*
X133688571Y-83026031D01*
X133525764Y-82849175D01*
X133525759Y-82849171D01*
X133525757Y-82849169D01*
X133336075Y-82701533D01*
X133336069Y-82701529D01*
X133124657Y-82587118D01*
X133124652Y-82587116D01*
X132897300Y-82509066D01*
X132719468Y-82479391D01*
X132660192Y-82469500D01*
X132419808Y-82469500D01*
X132372387Y-82477413D01*
X132182699Y-82509066D01*
X131955347Y-82587116D01*
X131955342Y-82587118D01*
X131743930Y-82701529D01*
X131743924Y-82701533D01*
X131554242Y-82849169D01*
X131554239Y-82849172D01*
X131554236Y-82849174D01*
X131554236Y-82849175D01*
X131538847Y-82865892D01*
X131391430Y-83026029D01*
X131391429Y-83026031D01*
X131373807Y-83053003D01*
X131320660Y-83098358D01*
X131251429Y-83107780D01*
X131188093Y-83078277D01*
X131166193Y-83053003D01*
X131164154Y-83049883D01*
X131148571Y-83026031D01*
X130985764Y-82849175D01*
X130985759Y-82849171D01*
X130985757Y-82849169D01*
X130796075Y-82701533D01*
X130796069Y-82701529D01*
X130584657Y-82587118D01*
X130584652Y-82587116D01*
X130357300Y-82509066D01*
X130179468Y-82479391D01*
X130120192Y-82469500D01*
X129879808Y-82469500D01*
X129832387Y-82477413D01*
X129642699Y-82509066D01*
X129415347Y-82587116D01*
X129415342Y-82587118D01*
X129203930Y-82701529D01*
X129203924Y-82701533D01*
X129014242Y-82849169D01*
X129014239Y-82849172D01*
X129014236Y-82849174D01*
X129014236Y-82849175D01*
X128998847Y-82865892D01*
X128851430Y-83026029D01*
X128851427Y-83026033D01*
X128719951Y-83227270D01*
X128623389Y-83447410D01*
X128564379Y-83680440D01*
X128544529Y-83919994D01*
X128544529Y-83920005D01*
X128564379Y-84159559D01*
X128623389Y-84392589D01*
X128719951Y-84612729D01*
X128853852Y-84817678D01*
X128874040Y-84884568D01*
X128854861Y-84951753D01*
X128802402Y-84997904D01*
X128750044Y-85009500D01*
X127732129Y-85009500D01*
X127732123Y-85009501D01*
X127672516Y-85015908D01*
X127537671Y-85066202D01*
X127537664Y-85066206D01*
X127422455Y-85152452D01*
X127422452Y-85152455D01*
X127336206Y-85267664D01*
X127336202Y-85267671D01*
X127285908Y-85402517D01*
X127279501Y-85462116D01*
X127279500Y-85462135D01*
X115100500Y-85462135D01*
X115100500Y-79499998D01*
X129644532Y-79499998D01*
X129644532Y-79500001D01*
X129664364Y-79726686D01*
X129664366Y-79726697D01*
X129723258Y-79946488D01*
X129723261Y-79946497D01*
X129819431Y-80152732D01*
X129819432Y-80152734D01*
X129949954Y-80339141D01*
X130110858Y-80500045D01*
X130110861Y-80500047D01*
X130297266Y-80630568D01*
X130503504Y-80726739D01*
X130723308Y-80785635D01*
X130885230Y-80799801D01*
X130949998Y-80805468D01*
X130950000Y-80805468D01*
X130950002Y-80805468D01*
X131006673Y-80800509D01*
X131176692Y-80785635D01*
X131396496Y-80726739D01*
X131602734Y-80630568D01*
X131789139Y-80500047D01*
X131950047Y-80339139D01*
X132080568Y-80152734D01*
X132176739Y-79946496D01*
X132235635Y-79726692D01*
X132255468Y-79500000D01*
X132235635Y-79273308D01*
X132229389Y-79249999D01*
X137171127Y-79249999D01*
X137171128Y-79250000D01*
X138134314Y-79250000D01*
X138129920Y-79254394D01*
X138077259Y-79345606D01*
X138050000Y-79447339D01*
X138050000Y-79552661D01*
X138077259Y-79654394D01*
X138129920Y-79745606D01*
X138134314Y-79750000D01*
X137171128Y-79750000D01*
X137223730Y-79946317D01*
X137223734Y-79946326D01*
X137319865Y-80152482D01*
X137450342Y-80338820D01*
X137611179Y-80499657D01*
X137797517Y-80630134D01*
X138003673Y-80726265D01*
X138003682Y-80726269D01*
X138199999Y-80778872D01*
X138200000Y-80778871D01*
X138200000Y-79815686D01*
X138204394Y-79820080D01*
X138295606Y-79872741D01*
X138397339Y-79900000D01*
X138502661Y-79900000D01*
X138604394Y-79872741D01*
X138695606Y-79820080D01*
X138700000Y-79815686D01*
X138700000Y-80778872D01*
X138896317Y-80726269D01*
X138896326Y-80726265D01*
X139102482Y-80630134D01*
X139288820Y-80499657D01*
X139449657Y-80338820D01*
X139580134Y-80152482D01*
X139676265Y-79946326D01*
X139676269Y-79946317D01*
X139728872Y-79750000D01*
X138765686Y-79750000D01*
X138770080Y-79745606D01*
X138822741Y-79654394D01*
X138850000Y-79552661D01*
X138850000Y-79447339D01*
X138822741Y-79345606D01*
X138770080Y-79254394D01*
X138765686Y-79250000D01*
X139728872Y-79250000D01*
X139728872Y-79249999D01*
X139676269Y-79053682D01*
X139676265Y-79053673D01*
X139580134Y-78847517D01*
X139449657Y-78661179D01*
X139288820Y-78500342D01*
X139102482Y-78369865D01*
X138896328Y-78273734D01*
X138700000Y-78221127D01*
X138700000Y-79184314D01*
X138695606Y-79179920D01*
X138604394Y-79127259D01*
X138502661Y-79100000D01*
X138397339Y-79100000D01*
X138295606Y-79127259D01*
X138204394Y-79179920D01*
X138200000Y-79184314D01*
X138200000Y-78221127D01*
X138003671Y-78273734D01*
X137797517Y-78369865D01*
X137611179Y-78500342D01*
X137450342Y-78661179D01*
X137319865Y-78847517D01*
X137223734Y-79053673D01*
X137223730Y-79053682D01*
X137171127Y-79249999D01*
X132229389Y-79249999D01*
X132176739Y-79053504D01*
X132080568Y-78847266D01*
X131950047Y-78660861D01*
X131950045Y-78660858D01*
X131789141Y-78499954D01*
X131602734Y-78369432D01*
X131602732Y-78369431D01*
X131396497Y-78273261D01*
X131396488Y-78273258D01*
X131176697Y-78214366D01*
X131176693Y-78214365D01*
X131176692Y-78214365D01*
X131176691Y-78214364D01*
X131176686Y-78214364D01*
X130950002Y-78194532D01*
X130949998Y-78194532D01*
X130723313Y-78214364D01*
X130723302Y-78214366D01*
X130503511Y-78273258D01*
X130503502Y-78273261D01*
X130297267Y-78369431D01*
X130297265Y-78369432D01*
X130110858Y-78499954D01*
X129949954Y-78660858D01*
X129819432Y-78847265D01*
X129819431Y-78847267D01*
X129723261Y-79053502D01*
X129723258Y-79053511D01*
X129664366Y-79273302D01*
X129664364Y-79273313D01*
X129644532Y-79499998D01*
X115100500Y-79499998D01*
X115100500Y-42665186D01*
X117299500Y-42665186D01*
X117299500Y-42934813D01*
X117329686Y-43202719D01*
X117329688Y-43202731D01*
X117389684Y-43465594D01*
X117389687Y-43465602D01*
X117478734Y-43720082D01*
X117595714Y-43962994D01*
X117595716Y-43962997D01*
X117739162Y-44191289D01*
X117907266Y-44402085D01*
X118097915Y-44592734D01*
X118308711Y-44760838D01*
X118537003Y-44904284D01*
X118779921Y-45021267D01*
X118971049Y-45088145D01*
X119034397Y-45110312D01*
X119034405Y-45110315D01*
X119034408Y-45110315D01*
X119034409Y-45110316D01*
X119297268Y-45170312D01*
X119565187Y-45200499D01*
X119565188Y-45200500D01*
X119565191Y-45200500D01*
X119834812Y-45200500D01*
X119834812Y-45200499D01*
X120102732Y-45170312D01*
X120365591Y-45110316D01*
X120620079Y-45021267D01*
X120862997Y-44904284D01*
X121091289Y-44760838D01*
X121302085Y-44592734D01*
X121492734Y-44402085D01*
X121660838Y-44191289D01*
X121804284Y-43962997D01*
X121921267Y-43720079D01*
X122010316Y-43465591D01*
X122070312Y-43202732D01*
X122100500Y-42934809D01*
X122100500Y-42665191D01*
X122100499Y-42665186D01*
X169099500Y-42665186D01*
X169099500Y-42934813D01*
X169129686Y-43202719D01*
X169129688Y-43202731D01*
X169189684Y-43465594D01*
X169189687Y-43465602D01*
X169278734Y-43720082D01*
X169395714Y-43962994D01*
X169395716Y-43962997D01*
X169539162Y-44191289D01*
X169707266Y-44402085D01*
X169897915Y-44592734D01*
X170108711Y-44760838D01*
X170337003Y-44904284D01*
X170579921Y-45021267D01*
X170771049Y-45088145D01*
X170834397Y-45110312D01*
X170834405Y-45110315D01*
X170834408Y-45110315D01*
X170834409Y-45110316D01*
X171097268Y-45170312D01*
X171365187Y-45200499D01*
X171365188Y-45200500D01*
X171365191Y-45200500D01*
X171634812Y-45200500D01*
X171634812Y-45200499D01*
X171902732Y-45170312D01*
X172165591Y-45110316D01*
X172420079Y-45021267D01*
X172662997Y-44904284D01*
X172891289Y-44760838D01*
X173102085Y-44592734D01*
X173292734Y-44402085D01*
X173460838Y-44191289D01*
X173604284Y-43962997D01*
X173721267Y-43720079D01*
X173810316Y-43465591D01*
X173870312Y-43202732D01*
X173900500Y-42934809D01*
X173900500Y-42665191D01*
X173870312Y-42397268D01*
X173810316Y-42134409D01*
X173721267Y-41879921D01*
X173604284Y-41637003D01*
X173460838Y-41408711D01*
X173292734Y-41197915D01*
X173102085Y-41007266D01*
X172891289Y-40839162D01*
X172662997Y-40695716D01*
X172662994Y-40695714D01*
X172420082Y-40578734D01*
X172165602Y-40489687D01*
X172165594Y-40489684D01*
X171968446Y-40444687D01*
X171902732Y-40429688D01*
X171902728Y-40429687D01*
X171902719Y-40429686D01*
X171634813Y-40399500D01*
X171634809Y-40399500D01*
X171365191Y-40399500D01*
X171365186Y-40399500D01*
X171097280Y-40429686D01*
X171097268Y-40429688D01*
X170834405Y-40489684D01*
X170834397Y-40489687D01*
X170579917Y-40578734D01*
X170337005Y-40695714D01*
X170108712Y-40839161D01*
X169897915Y-41007265D01*
X169707265Y-41197915D01*
X169539161Y-41408712D01*
X169395714Y-41637005D01*
X169278734Y-41879917D01*
X169189687Y-42134397D01*
X169189684Y-42134405D01*
X169129688Y-42397268D01*
X169129686Y-42397280D01*
X169099500Y-42665186D01*
X122100499Y-42665186D01*
X122070312Y-42397268D01*
X122010316Y-42134409D01*
X121921267Y-41879921D01*
X121804284Y-41637003D01*
X121660838Y-41408711D01*
X121492734Y-41197915D01*
X121302085Y-41007266D01*
X121091289Y-40839162D01*
X120862997Y-40695716D01*
X120862994Y-40695714D01*
X120620082Y-40578734D01*
X120365602Y-40489687D01*
X120365594Y-40489684D01*
X120168446Y-40444687D01*
X120102732Y-40429688D01*
X120102728Y-40429687D01*
X120102719Y-40429686D01*
X119834813Y-40399500D01*
X119834809Y-40399500D01*
X119565191Y-40399500D01*
X119565186Y-40399500D01*
X119297280Y-40429686D01*
X119297268Y-40429688D01*
X119034405Y-40489684D01*
X119034397Y-40489687D01*
X118779917Y-40578734D01*
X118537005Y-40695714D01*
X118308712Y-40839161D01*
X118097915Y-41007265D01*
X117907265Y-41197915D01*
X117739161Y-41408712D01*
X117595714Y-41637005D01*
X117478734Y-41879917D01*
X117389687Y-42134397D01*
X117389684Y-42134405D01*
X117329688Y-42397268D01*
X117329686Y-42397280D01*
X117299500Y-42665186D01*
X115100500Y-42665186D01*
X115100500Y-39902135D01*
X141549500Y-39902135D01*
X141549500Y-41697870D01*
X141549501Y-41697876D01*
X141555908Y-41757483D01*
X141606202Y-41892328D01*
X141606206Y-41892335D01*
X141692452Y-42007544D01*
X141692455Y-42007547D01*
X141807664Y-42093793D01*
X141807671Y-42093797D01*
X141942517Y-42144091D01*
X141942516Y-42144091D01*
X141949444Y-42144835D01*
X142002127Y-42150500D01*
X143797872Y-42150499D01*
X143857483Y-42144091D01*
X143992331Y-42093796D01*
X144107546Y-42007546D01*
X144193796Y-41892331D01*
X144242810Y-41760916D01*
X144284681Y-41704984D01*
X144350145Y-41680566D01*
X144418418Y-41695417D01*
X144446673Y-41716569D01*
X144568599Y-41838495D01*
X144665384Y-41906265D01*
X144762165Y-41974032D01*
X144762167Y-41974033D01*
X144762170Y-41974035D01*
X144976337Y-42073903D01*
X145204592Y-42135063D01*
X145381034Y-42150500D01*
X145439999Y-42155659D01*
X145440000Y-42155659D01*
X145440001Y-42155659D01*
X145498966Y-42150500D01*
X145675408Y-42135063D01*
X145903663Y-42073903D01*
X146117830Y-41974035D01*
X146311401Y-41838495D01*
X146478495Y-41671401D01*
X146608730Y-41485405D01*
X146663307Y-41441781D01*
X146732805Y-41434587D01*
X146795160Y-41466110D01*
X146811879Y-41485405D01*
X146941890Y-41671078D01*
X147108917Y-41838105D01*
X147302421Y-41973600D01*
X147516507Y-42073429D01*
X147516516Y-42073433D01*
X147730000Y-42130634D01*
X147730000Y-41233012D01*
X147787007Y-41265925D01*
X147914174Y-41300000D01*
X148045826Y-41300000D01*
X148172993Y-41265925D01*
X148230000Y-41233012D01*
X148230000Y-42130633D01*
X148443483Y-42073433D01*
X148443492Y-42073429D01*
X148657578Y-41973600D01*
X148851082Y-41838105D01*
X149018105Y-41671082D01*
X149148119Y-41485405D01*
X149202696Y-41441781D01*
X149272195Y-41434588D01*
X149334549Y-41466110D01*
X149351269Y-41485405D01*
X149481505Y-41671401D01*
X149648599Y-41838495D01*
X149745384Y-41906265D01*
X149842165Y-41974032D01*
X149842167Y-41974033D01*
X149842170Y-41974035D01*
X150056337Y-42073903D01*
X150284592Y-42135063D01*
X150461034Y-42150500D01*
X150519999Y-42155659D01*
X150520000Y-42155659D01*
X150520001Y-42155659D01*
X150578966Y-42150500D01*
X150755408Y-42135063D01*
X150983663Y-42073903D01*
X151197830Y-41974035D01*
X151391401Y-41838495D01*
X151558495Y-41671401D01*
X151694035Y-41477830D01*
X151793903Y-41263663D01*
X151855063Y-41035408D01*
X151875659Y-40800000D01*
X151855063Y-40564592D01*
X151793903Y-40336337D01*
X151694035Y-40122171D01*
X151688731Y-40114595D01*
X151558494Y-39928597D01*
X151391402Y-39761506D01*
X151391395Y-39761501D01*
X151197834Y-39625967D01*
X151197830Y-39625965D01*
X151197828Y-39625964D01*
X150983663Y-39526097D01*
X150983659Y-39526096D01*
X150983655Y-39526094D01*
X150755413Y-39464938D01*
X150755403Y-39464936D01*
X150520001Y-39444341D01*
X150519999Y-39444341D01*
X150284596Y-39464936D01*
X150284586Y-39464938D01*
X150056344Y-39526094D01*
X150056335Y-39526098D01*
X149842171Y-39625964D01*
X149842169Y-39625965D01*
X149648597Y-39761505D01*
X149481508Y-39928594D01*
X149351269Y-40114595D01*
X149296692Y-40158219D01*
X149227193Y-40165412D01*
X149164839Y-40133890D01*
X149148119Y-40114594D01*
X149018113Y-39928926D01*
X149018108Y-39928920D01*
X148851082Y-39761894D01*
X148657578Y-39626399D01*
X148443492Y-39526570D01*
X148443486Y-39526567D01*
X148230000Y-39469364D01*
X148230000Y-40366988D01*
X148172993Y-40334075D01*
X148045826Y-40300000D01*
X147914174Y-40300000D01*
X147787007Y-40334075D01*
X147730000Y-40366988D01*
X147730000Y-39469364D01*
X147729999Y-39469364D01*
X147516513Y-39526567D01*
X147516507Y-39526570D01*
X147302422Y-39626399D01*
X147302420Y-39626400D01*
X147108926Y-39761886D01*
X147108920Y-39761891D01*
X146941891Y-39928920D01*
X146941890Y-39928922D01*
X146811880Y-40114595D01*
X146757303Y-40158219D01*
X146687804Y-40165412D01*
X146625450Y-40133890D01*
X146608730Y-40114594D01*
X146478494Y-39928597D01*
X146311402Y-39761506D01*
X146311395Y-39761501D01*
X146117834Y-39625967D01*
X146117830Y-39625965D01*
X146117828Y-39625964D01*
X145903663Y-39526097D01*
X145903659Y-39526096D01*
X145903655Y-39526094D01*
X145675413Y-39464938D01*
X145675403Y-39464936D01*
X145440001Y-39444341D01*
X145439999Y-39444341D01*
X145204596Y-39464936D01*
X145204586Y-39464938D01*
X144976344Y-39526094D01*
X144976335Y-39526098D01*
X144762171Y-39625964D01*
X144762169Y-39625965D01*
X144568600Y-39761503D01*
X144446673Y-39883430D01*
X144385350Y-39916914D01*
X144315658Y-39911930D01*
X144259725Y-39870058D01*
X144242810Y-39839081D01*
X144193797Y-39707671D01*
X144193793Y-39707664D01*
X144107547Y-39592455D01*
X144107544Y-39592452D01*
X143992335Y-39506206D01*
X143992328Y-39506202D01*
X143857482Y-39455908D01*
X143857483Y-39455908D01*
X143797883Y-39449501D01*
X143797881Y-39449500D01*
X143797873Y-39449500D01*
X143797864Y-39449500D01*
X142002129Y-39449500D01*
X142002123Y-39449501D01*
X141942516Y-39455908D01*
X141807671Y-39506202D01*
X141807664Y-39506206D01*
X141692455Y-39592452D01*
X141692452Y-39592455D01*
X141606206Y-39707664D01*
X141606202Y-39707671D01*
X141555908Y-39842517D01*
X141549501Y-39902116D01*
X141549500Y-39902135D01*
X115100500Y-39902135D01*
X115100500Y-38324500D01*
X115120185Y-38257461D01*
X115172989Y-38211706D01*
X115224500Y-38200500D01*
X175975500Y-38200500D01*
X176042539Y-38220185D01*
G37*
%TD.AperFunction*%
%TA.AperFunction,Conductor*%
G36*
X145139024Y-101144671D02*
G01*
X145190133Y-101071682D01*
X145217341Y-101013335D01*
X145263513Y-100960896D01*
X145330707Y-100941743D01*
X145397588Y-100961958D01*
X145442105Y-101013332D01*
X145469432Y-101071934D01*
X145501021Y-101117048D01*
X145599954Y-101258341D01*
X145760858Y-101419245D01*
X145760861Y-101419247D01*
X145947266Y-101549768D01*
X146153504Y-101645939D01*
X146373308Y-101704835D01*
X146535230Y-101719001D01*
X146599998Y-101724668D01*
X146600000Y-101724668D01*
X146600002Y-101724668D01*
X146656673Y-101719709D01*
X146826692Y-101704835D01*
X147046496Y-101645939D01*
X147252734Y-101549768D01*
X147439139Y-101419247D01*
X147600047Y-101258339D01*
X147625088Y-101222577D01*
X147679665Y-101178952D01*
X147726663Y-101169700D01*
X148553135Y-101169700D01*
X148620174Y-101189385D01*
X148665929Y-101242189D01*
X148675873Y-101311347D01*
X148646848Y-101374903D01*
X148640816Y-101381381D01*
X147849816Y-102172381D01*
X147788493Y-102205866D01*
X147762135Y-102208700D01*
X145186663Y-102208700D01*
X145119624Y-102189015D01*
X145085088Y-102155823D01*
X145060045Y-102120058D01*
X144899141Y-101959154D01*
X144792546Y-101884517D01*
X144712734Y-101828632D01*
X144654132Y-101801305D01*
X144601694Y-101755133D01*
X144582543Y-101687939D01*
X144602759Y-101621058D01*
X144654135Y-101576541D01*
X144712482Y-101549333D01*
X144785471Y-101498224D01*
X144230234Y-100942987D01*
X144272292Y-100931718D01*
X144397708Y-100859310D01*
X144500110Y-100756908D01*
X144572518Y-100631492D01*
X144583787Y-100589434D01*
X145139024Y-101144671D01*
G37*
%TD.AperFunction*%
%TA.AperFunction,Conductor*%
G36*
X158011444Y-74470185D02*
G01*
X158057199Y-74522989D01*
X158067143Y-74592147D01*
X158064180Y-74606593D01*
X158014366Y-74792502D01*
X158014364Y-74792513D01*
X157994532Y-75019198D01*
X157994532Y-75019201D01*
X158014364Y-75245886D01*
X158014366Y-75245897D01*
X158073258Y-75465688D01*
X158073261Y-75465697D01*
X158169431Y-75671932D01*
X158169432Y-75671934D01*
X158299954Y-75858341D01*
X158460858Y-76019245D01*
X158460861Y-76019247D01*
X158647266Y-76149768D01*
X158705275Y-76176818D01*
X158757714Y-76222991D01*
X158776866Y-76290184D01*
X158756650Y-76357065D01*
X158705275Y-76401582D01*
X158647267Y-76428631D01*
X158647265Y-76428632D01*
X158460858Y-76559154D01*
X158299954Y-76720058D01*
X158169432Y-76906465D01*
X158169431Y-76906467D01*
X158073261Y-77112702D01*
X158073258Y-77112711D01*
X158014366Y-77332502D01*
X158014364Y-77332513D01*
X157994532Y-77559198D01*
X157994532Y-77559201D01*
X158014364Y-77785886D01*
X158014366Y-77785897D01*
X158073258Y-78005688D01*
X158073261Y-78005697D01*
X158169431Y-78211932D01*
X158169432Y-78211934D01*
X158299954Y-78398341D01*
X158460858Y-78559245D01*
X158460861Y-78559247D01*
X158647266Y-78689768D01*
X158705275Y-78716818D01*
X158757714Y-78762991D01*
X158776866Y-78830184D01*
X158756650Y-78897065D01*
X158705275Y-78941582D01*
X158647267Y-78968631D01*
X158647265Y-78968632D01*
X158460858Y-79099154D01*
X158299954Y-79260058D01*
X158169432Y-79446465D01*
X158169431Y-79446467D01*
X158073261Y-79652702D01*
X158073258Y-79652711D01*
X158014366Y-79872502D01*
X158014364Y-79872513D01*
X157994532Y-80099198D01*
X157994532Y-80099201D01*
X158014364Y-80325886D01*
X158014366Y-80325897D01*
X158073258Y-80545688D01*
X158073261Y-80545697D01*
X158169431Y-80751932D01*
X158169432Y-80751934D01*
X158299954Y-80938341D01*
X158460858Y-81099245D01*
X158460861Y-81099247D01*
X158647266Y-81229768D01*
X158705275Y-81256818D01*
X158757714Y-81302991D01*
X158776866Y-81370184D01*
X158756650Y-81437065D01*
X158705275Y-81481582D01*
X158647267Y-81508631D01*
X158647265Y-81508632D01*
X158460858Y-81639154D01*
X158299954Y-81800058D01*
X158169432Y-81986465D01*
X158169431Y-81986467D01*
X158073261Y-82192702D01*
X158073258Y-82192711D01*
X158014366Y-82412502D01*
X158014364Y-82412513D01*
X157994532Y-82639198D01*
X157994532Y-82639201D01*
X158014364Y-82865886D01*
X158014366Y-82865897D01*
X158073258Y-83085688D01*
X158073261Y-83085697D01*
X158169431Y-83291932D01*
X158169432Y-83291934D01*
X158299954Y-83478341D01*
X158460858Y-83639245D01*
X158460861Y-83639247D01*
X158647266Y-83769768D01*
X158705275Y-83796818D01*
X158757714Y-83842991D01*
X158776866Y-83910184D01*
X158756650Y-83977065D01*
X158705275Y-84021582D01*
X158647267Y-84048631D01*
X158647265Y-84048632D01*
X158460858Y-84179154D01*
X158299954Y-84340058D01*
X158169432Y-84526465D01*
X158169431Y-84526467D01*
X158073261Y-84732702D01*
X158073258Y-84732711D01*
X158014366Y-84952502D01*
X158014364Y-84952513D01*
X157994532Y-85179198D01*
X157994532Y-85179201D01*
X158014364Y-85405886D01*
X158014366Y-85405897D01*
X158073258Y-85625688D01*
X158073261Y-85625697D01*
X158169431Y-85831932D01*
X158169432Y-85831934D01*
X158299954Y-86018341D01*
X158460858Y-86179245D01*
X158460861Y-86179247D01*
X158647266Y-86309768D01*
X158705275Y-86336818D01*
X158757714Y-86382991D01*
X158776866Y-86450184D01*
X158756650Y-86517065D01*
X158705275Y-86561582D01*
X158647267Y-86588631D01*
X158647265Y-86588632D01*
X158460858Y-86719154D01*
X158299954Y-86880058D01*
X158169432Y-87066465D01*
X158169431Y-87066467D01*
X158073261Y-87272702D01*
X158073258Y-87272711D01*
X158014366Y-87492502D01*
X158014364Y-87492513D01*
X157994532Y-87719198D01*
X157994532Y-87719201D01*
X158014364Y-87945886D01*
X158014366Y-87945897D01*
X158073258Y-88165688D01*
X158073261Y-88165697D01*
X158169431Y-88371932D01*
X158169432Y-88371934D01*
X158299954Y-88558341D01*
X158460858Y-88719245D01*
X158507693Y-88752039D01*
X158647266Y-88849768D01*
X158705275Y-88876818D01*
X158757714Y-88922991D01*
X158776866Y-88990184D01*
X158756650Y-89057065D01*
X158705275Y-89101582D01*
X158647267Y-89128631D01*
X158647265Y-89128632D01*
X158460858Y-89259154D01*
X158299954Y-89420058D01*
X158169432Y-89606465D01*
X158169431Y-89606467D01*
X158073261Y-89812702D01*
X158073258Y-89812711D01*
X158014366Y-90032502D01*
X158014364Y-90032513D01*
X157994532Y-90259198D01*
X157994532Y-90259201D01*
X158014364Y-90485886D01*
X158014366Y-90485897D01*
X158073258Y-90705688D01*
X158073261Y-90705697D01*
X158169431Y-90911932D01*
X158169432Y-90911934D01*
X158299954Y-91098341D01*
X158460858Y-91259245D01*
X158460861Y-91259247D01*
X158647266Y-91389768D01*
X158705275Y-91416818D01*
X158757714Y-91462991D01*
X158776866Y-91530184D01*
X158756650Y-91597065D01*
X158705275Y-91641582D01*
X158647267Y-91668631D01*
X158647265Y-91668632D01*
X158460858Y-91799154D01*
X158299954Y-91960058D01*
X158169432Y-92146465D01*
X158169431Y-92146467D01*
X158073261Y-92352702D01*
X158073258Y-92352711D01*
X158014366Y-92572502D01*
X158014364Y-92572513D01*
X157994532Y-92799198D01*
X157994532Y-92799201D01*
X158014364Y-93025886D01*
X158014366Y-93025897D01*
X158073258Y-93245688D01*
X158073261Y-93245697D01*
X158169431Y-93451932D01*
X158169432Y-93451934D01*
X158299954Y-93638341D01*
X158460858Y-93799245D01*
X158460861Y-93799247D01*
X158647266Y-93929768D01*
X158705275Y-93956818D01*
X158757714Y-94002991D01*
X158776866Y-94070184D01*
X158756650Y-94137065D01*
X158705275Y-94181582D01*
X158647267Y-94208631D01*
X158647265Y-94208632D01*
X158460858Y-94339154D01*
X158299954Y-94500058D01*
X158169432Y-94686465D01*
X158169431Y-94686467D01*
X158073261Y-94892702D01*
X158073258Y-94892711D01*
X158014366Y-95112502D01*
X158014364Y-95112513D01*
X157994532Y-95339198D01*
X157994532Y-95339201D01*
X158014364Y-95565886D01*
X158014366Y-95565897D01*
X158073258Y-95785688D01*
X158073261Y-95785697D01*
X158169431Y-95991932D01*
X158169432Y-95991934D01*
X158299954Y-96178341D01*
X158460858Y-96339245D01*
X158460861Y-96339247D01*
X158647266Y-96469768D01*
X158682406Y-96486154D01*
X158705275Y-96496818D01*
X158757714Y-96542991D01*
X158776866Y-96610184D01*
X158756650Y-96677065D01*
X158705275Y-96721582D01*
X158647267Y-96748631D01*
X158647265Y-96748632D01*
X158460858Y-96879154D01*
X158299954Y-97040058D01*
X158169432Y-97226465D01*
X158169431Y-97226467D01*
X158073261Y-97432702D01*
X158073258Y-97432711D01*
X158014366Y-97652502D01*
X158014364Y-97652513D01*
X157994532Y-97879198D01*
X157994532Y-97879201D01*
X158014364Y-98105886D01*
X158014366Y-98105897D01*
X158045638Y-98222607D01*
X158043975Y-98292457D01*
X158004812Y-98350319D01*
X157940583Y-98377823D01*
X157925863Y-98378700D01*
X156208313Y-98378700D01*
X156063325Y-98407540D01*
X156063315Y-98407543D01*
X155926744Y-98464112D01*
X155926731Y-98464119D01*
X155803817Y-98546248D01*
X155803813Y-98546251D01*
X154717684Y-99632381D01*
X154656361Y-99665866D01*
X154630003Y-99668700D01*
X147726663Y-99668700D01*
X147659624Y-99649015D01*
X147625088Y-99615823D01*
X147600045Y-99580058D01*
X147439141Y-99419154D01*
X147252734Y-99288632D01*
X147252732Y-99288631D01*
X147046497Y-99192461D01*
X147046488Y-99192458D01*
X146826697Y-99133566D01*
X146826693Y-99133565D01*
X146826692Y-99133565D01*
X146826691Y-99133564D01*
X146826686Y-99133564D01*
X146600002Y-99113732D01*
X146599998Y-99113732D01*
X146373313Y-99133564D01*
X146373302Y-99133566D01*
X146153511Y-99192458D01*
X146153502Y-99192461D01*
X145947267Y-99288631D01*
X145947265Y-99288632D01*
X145760858Y-99419154D01*
X145599954Y-99580058D01*
X145469432Y-99766465D01*
X145469428Y-99766472D01*
X145442105Y-99825066D01*
X145395932Y-99877505D01*
X145328738Y-99896656D01*
X145261858Y-99876439D01*
X145217342Y-99825064D01*
X145190136Y-99766721D01*
X145190132Y-99766713D01*
X145139025Y-99693726D01*
X144583787Y-100248964D01*
X144572518Y-100206908D01*
X144500110Y-100081492D01*
X144397708Y-99979090D01*
X144272292Y-99906682D01*
X144230234Y-99895412D01*
X144785472Y-99340174D01*
X144712480Y-99289064D01*
X144654134Y-99261857D01*
X144601695Y-99215684D01*
X144582543Y-99148491D01*
X144602759Y-99081610D01*
X144654134Y-99037093D01*
X144712734Y-99009768D01*
X144899139Y-98879247D01*
X145060047Y-98718339D01*
X145190568Y-98531934D01*
X145286739Y-98325696D01*
X145345635Y-98105892D01*
X145365468Y-97879200D01*
X145364817Y-97871764D01*
X145359801Y-97814430D01*
X145345635Y-97652508D01*
X145294388Y-97461251D01*
X145286741Y-97432711D01*
X145286738Y-97432702D01*
X145245334Y-97343911D01*
X145190568Y-97226466D01*
X145060047Y-97040061D01*
X145060045Y-97040058D01*
X144899141Y-96879154D01*
X144712734Y-96748632D01*
X144712728Y-96748629D01*
X144654725Y-96721582D01*
X144602285Y-96675410D01*
X144583133Y-96608217D01*
X144603348Y-96541335D01*
X144654725Y-96496818D01*
X144712734Y-96469768D01*
X144899139Y-96339247D01*
X145060047Y-96178339D01*
X145190568Y-95991934D01*
X145286739Y-95785696D01*
X145345635Y-95565892D01*
X145363692Y-95359500D01*
X145365468Y-95339201D01*
X145365468Y-95339198D01*
X145348748Y-95148092D01*
X145345635Y-95112508D01*
X145286739Y-94892704D01*
X145190568Y-94686466D01*
X145060047Y-94500061D01*
X145056942Y-94495626D01*
X145059241Y-94494016D01*
X145035589Y-94441097D01*
X145046090Y-94372021D01*
X145070781Y-94336764D01*
X148241149Y-91166395D01*
X148302470Y-91132912D01*
X148351611Y-91132189D01*
X148391790Y-91139700D01*
X148391793Y-91139700D01*
X148605008Y-91139700D01*
X148605010Y-91139700D01*
X148814598Y-91100521D01*
X149013419Y-91023498D01*
X149194702Y-90911252D01*
X149352272Y-90767607D01*
X149399446Y-90705138D01*
X149455555Y-90663503D01*
X149525267Y-90658812D01*
X149586449Y-90692554D01*
X149597354Y-90705139D01*
X149643939Y-90766828D01*
X149644528Y-90767607D01*
X149802098Y-90911252D01*
X149983381Y-91023498D01*
X150182202Y-91100521D01*
X150391790Y-91139700D01*
X150391792Y-91139700D01*
X150605008Y-91139700D01*
X150605010Y-91139700D01*
X150814598Y-91100521D01*
X151013419Y-91023498D01*
X151194702Y-90911252D01*
X151352272Y-90767607D01*
X151480766Y-90597455D01*
X151539251Y-90480000D01*
X151575803Y-90406594D01*
X151575803Y-90406593D01*
X151575805Y-90406589D01*
X151634156Y-90201510D01*
X151653829Y-89989200D01*
X151634156Y-89776890D01*
X151575805Y-89571811D01*
X151575803Y-89571806D01*
X151575803Y-89571805D01*
X151480767Y-89380946D01*
X151358859Y-89219516D01*
X151352272Y-89210793D01*
X151256332Y-89123332D01*
X151209718Y-89080837D01*
X151173436Y-89021126D01*
X151175197Y-88951278D01*
X151209718Y-88897563D01*
X151302135Y-88813313D01*
X151352272Y-88767607D01*
X151480766Y-88597455D01*
X151539999Y-88478498D01*
X151575803Y-88406594D01*
X151575803Y-88406593D01*
X151575805Y-88406589D01*
X151634156Y-88201510D01*
X151653829Y-87989200D01*
X151634156Y-87776890D01*
X151575805Y-87571811D01*
X151575803Y-87571806D01*
X151575803Y-87571805D01*
X151480767Y-87380946D01*
X151352272Y-87210793D01*
X151305450Y-87168109D01*
X151194702Y-87067148D01*
X151013419Y-86954902D01*
X151013417Y-86954901D01*
X150820230Y-86880061D01*
X150814598Y-86877879D01*
X150605010Y-86838700D01*
X150391790Y-86838700D01*
X150182202Y-86877879D01*
X150182199Y-86877879D01*
X150182199Y-86877880D01*
X149983382Y-86954901D01*
X149983380Y-86954902D01*
X149802099Y-87067147D01*
X149644527Y-87210793D01*
X149562466Y-87319459D01*
X149506356Y-87361095D01*
X149475678Y-87365473D01*
X148898400Y-87942751D01*
X148898400Y-87936539D01*
X148871141Y-87834806D01*
X148818480Y-87743594D01*
X148744006Y-87669120D01*
X148652794Y-87616459D01*
X148551061Y-87589200D01*
X148544848Y-87589200D01*
X149115407Y-87018639D01*
X149013193Y-86955351D01*
X149013189Y-86955349D01*
X148814463Y-86878363D01*
X148814458Y-86878362D01*
X148604961Y-86839200D01*
X148391839Y-86839200D01*
X148182341Y-86878362D01*
X148182336Y-86878363D01*
X147983610Y-86955349D01*
X147983601Y-86955354D01*
X147881392Y-87018638D01*
X147881391Y-87018639D01*
X148451953Y-87589200D01*
X148445739Y-87589200D01*
X148344006Y-87616459D01*
X148252794Y-87669120D01*
X148178320Y-87743594D01*
X148125659Y-87834806D01*
X148098400Y-87936539D01*
X148098400Y-87942752D01*
X147519070Y-87363422D01*
X147473630Y-87353437D01*
X147434333Y-87319458D01*
X147352272Y-87210793D01*
X147305450Y-87168109D01*
X147194702Y-87067148D01*
X147013419Y-86954902D01*
X147013417Y-86954901D01*
X146820230Y-86880061D01*
X146814598Y-86877879D01*
X146605010Y-86838700D01*
X146391790Y-86838700D01*
X146182202Y-86877879D01*
X146182199Y-86877879D01*
X146182199Y-86877880D01*
X145983382Y-86954901D01*
X145983380Y-86954902D01*
X145802099Y-87067147D01*
X145644526Y-87210794D01*
X145521209Y-87374090D01*
X145465100Y-87415725D01*
X145395388Y-87420416D01*
X145334206Y-87386673D01*
X145302481Y-87331454D01*
X145286742Y-87272713D01*
X145286738Y-87272702D01*
X145257869Y-87210793D01*
X145190568Y-87066466D01*
X145060047Y-86880061D01*
X145060045Y-86880058D01*
X144899141Y-86719154D01*
X144712734Y-86588632D01*
X144712728Y-86588629D01*
X144654725Y-86561582D01*
X144602285Y-86515410D01*
X144597892Y-86499998D01*
X154943732Y-86499998D01*
X154943732Y-86500001D01*
X154963564Y-86726686D01*
X154963566Y-86726697D01*
X155022458Y-86946488D01*
X155022461Y-86946497D01*
X155118631Y-87152732D01*
X155118632Y-87152734D01*
X155249154Y-87339141D01*
X155410058Y-87500045D01*
X155410061Y-87500047D01*
X155596466Y-87630568D01*
X155654475Y-87657618D01*
X155706914Y-87703791D01*
X155726066Y-87770984D01*
X155705850Y-87837865D01*
X155654475Y-87882382D01*
X155596467Y-87909431D01*
X155596465Y-87909432D01*
X155410058Y-88039954D01*
X155249154Y-88200858D01*
X155118632Y-88387265D01*
X155118631Y-88387267D01*
X155022461Y-88593502D01*
X155022458Y-88593511D01*
X154963566Y-88813302D01*
X154963564Y-88813313D01*
X154943732Y-89039998D01*
X154943732Y-89040001D01*
X154963564Y-89266686D01*
X154963566Y-89266697D01*
X155022458Y-89486488D01*
X155022461Y-89486497D01*
X155118631Y-89692732D01*
X155118632Y-89692734D01*
X155249154Y-89879141D01*
X155410058Y-90040045D01*
X155410061Y-90040047D01*
X155596466Y-90170568D01*
X155654475Y-90197618D01*
X155706914Y-90243791D01*
X155726066Y-90310984D01*
X155705850Y-90377865D01*
X155654475Y-90422382D01*
X155596467Y-90449431D01*
X155596465Y-90449432D01*
X155410058Y-90579954D01*
X155249154Y-90740858D01*
X155118632Y-90927265D01*
X155118631Y-90927267D01*
X155022461Y-91133502D01*
X155022458Y-91133511D01*
X154963566Y-91353302D01*
X154963564Y-91353313D01*
X154943732Y-91579998D01*
X154943732Y-91580001D01*
X154963564Y-91806686D01*
X154963566Y-91806697D01*
X155022458Y-92026488D01*
X155022461Y-92026497D01*
X155118631Y-92232732D01*
X155118632Y-92232734D01*
X155249154Y-92419141D01*
X155410058Y-92580045D01*
X155410061Y-92580047D01*
X155596466Y-92710568D01*
X155654475Y-92737618D01*
X155706914Y-92783791D01*
X155726066Y-92850984D01*
X155705850Y-92917865D01*
X155654475Y-92962382D01*
X155596467Y-92989431D01*
X155596465Y-92989432D01*
X155410058Y-93119954D01*
X155249154Y-93280858D01*
X155118632Y-93467265D01*
X155118631Y-93467267D01*
X155022461Y-93673502D01*
X155022458Y-93673511D01*
X154963566Y-93893302D01*
X154963564Y-93893313D01*
X154943732Y-94119998D01*
X154943732Y-94120001D01*
X154963564Y-94346686D01*
X154963566Y-94346697D01*
X155022458Y-94566488D01*
X155022461Y-94566497D01*
X155118631Y-94772732D01*
X155118632Y-94772734D01*
X155249154Y-94959141D01*
X155410058Y-95120045D01*
X155434662Y-95137273D01*
X155478287Y-95191849D01*
X155485481Y-95261348D01*
X155453958Y-95323703D01*
X155393729Y-95359117D01*
X155376793Y-95362138D01*
X155341716Y-95365908D01*
X155206871Y-95416202D01*
X155206864Y-95416206D01*
X155091655Y-95502452D01*
X155091652Y-95502455D01*
X155005406Y-95617664D01*
X155005402Y-95617671D01*
X154955108Y-95752517D01*
X154948701Y-95812116D01*
X154948701Y-95812123D01*
X154948700Y-95812135D01*
X154948700Y-97507870D01*
X154948701Y-97507876D01*
X154955108Y-97567483D01*
X155005402Y-97702328D01*
X155005406Y-97702335D01*
X155091652Y-97817544D01*
X155091655Y-97817547D01*
X155206864Y-97903793D01*
X155206871Y-97903797D01*
X155341717Y-97954091D01*
X155341716Y-97954091D01*
X155348644Y-97954835D01*
X155401327Y-97960500D01*
X157097072Y-97960499D01*
X157156683Y-97954091D01*
X157291531Y-97903796D01*
X157406746Y-97817546D01*
X157492996Y-97702331D01*
X157543291Y-97567483D01*
X157549700Y-97507873D01*
X157549699Y-95812128D01*
X157543291Y-95752517D01*
X157532174Y-95722712D01*
X157492997Y-95617671D01*
X157492993Y-95617664D01*
X157406747Y-95502455D01*
X157406744Y-95502452D01*
X157291535Y-95416206D01*
X157291528Y-95416202D01*
X157156682Y-95365908D01*
X157156683Y-95365908D01*
X157121604Y-95362137D01*
X157057053Y-95335399D01*
X157017205Y-95278006D01*
X157014712Y-95208181D01*
X157050365Y-95148092D01*
X157063739Y-95137272D01*
X157088340Y-95120046D01*
X157249245Y-94959141D01*
X157249247Y-94959139D01*
X157379768Y-94772734D01*
X157475939Y-94566496D01*
X157534835Y-94346692D01*
X157554668Y-94120000D01*
X157554008Y-94112461D01*
X157538025Y-93929768D01*
X157534835Y-93893308D01*
X157475939Y-93673504D01*
X157379768Y-93467266D01*
X157249247Y-93280861D01*
X157249245Y-93280858D01*
X157088341Y-93119954D01*
X156901934Y-92989432D01*
X156901928Y-92989429D01*
X156843925Y-92962382D01*
X156791485Y-92916210D01*
X156772333Y-92849017D01*
X156792548Y-92782135D01*
X156843925Y-92737618D01*
X156901934Y-92710568D01*
X157088339Y-92580047D01*
X157249247Y-92419139D01*
X157379768Y-92232734D01*
X157475939Y-92026496D01*
X157534835Y-91806692D01*
X157554668Y-91580000D01*
X157554008Y-91572461D01*
X157548526Y-91509792D01*
X157534835Y-91353308D01*
X157475939Y-91133504D01*
X157379768Y-90927266D01*
X157249247Y-90740861D01*
X157249245Y-90740858D01*
X157088341Y-90579954D01*
X156901934Y-90449432D01*
X156901928Y-90449429D01*
X156843925Y-90422382D01*
X156791485Y-90376210D01*
X156772333Y-90309017D01*
X156792548Y-90242135D01*
X156843925Y-90197618D01*
X156901934Y-90170568D01*
X157088339Y-90040047D01*
X157249247Y-89879139D01*
X157379768Y-89692734D01*
X157475939Y-89486496D01*
X157534835Y-89266692D01*
X157554668Y-89040000D01*
X157554008Y-89032461D01*
X157546439Y-88945939D01*
X157534835Y-88813308D01*
X157475939Y-88593504D01*
X157379768Y-88387266D01*
X157273015Y-88234806D01*
X157249245Y-88200858D01*
X157088341Y-88039954D01*
X156901934Y-87909432D01*
X156901928Y-87909429D01*
X156843925Y-87882382D01*
X156791485Y-87836210D01*
X156772333Y-87769017D01*
X156792548Y-87702135D01*
X156843925Y-87657618D01*
X156901934Y-87630568D01*
X157088339Y-87500047D01*
X157249247Y-87339139D01*
X157379768Y-87152734D01*
X157475939Y-86946496D01*
X157534835Y-86726692D01*
X157554668Y-86500000D01*
X157554008Y-86492461D01*
X157538025Y-86309768D01*
X157534835Y-86273308D01*
X157475939Y-86053504D01*
X157379768Y-85847266D01*
X157249247Y-85660861D01*
X157249245Y-85660858D01*
X157088341Y-85499954D01*
X156901934Y-85369432D01*
X156901932Y-85369431D01*
X156695697Y-85273261D01*
X156695688Y-85273258D01*
X156475897Y-85214366D01*
X156475893Y-85214365D01*
X156475892Y-85214365D01*
X156475891Y-85214364D01*
X156475886Y-85214364D01*
X156249202Y-85194532D01*
X156249198Y-85194532D01*
X156022513Y-85214364D01*
X156022502Y-85214366D01*
X155802711Y-85273258D01*
X155802702Y-85273261D01*
X155596467Y-85369431D01*
X155596465Y-85369432D01*
X155410058Y-85499954D01*
X155249154Y-85660858D01*
X155118632Y-85847265D01*
X155118631Y-85847267D01*
X155022461Y-86053502D01*
X155022458Y-86053511D01*
X154963566Y-86273302D01*
X154963564Y-86273313D01*
X154943732Y-86499998D01*
X144597892Y-86499998D01*
X144583133Y-86448217D01*
X144603348Y-86381335D01*
X144654725Y-86336818D01*
X144712734Y-86309768D01*
X144899139Y-86179247D01*
X145060047Y-86018339D01*
X145190568Y-85831934D01*
X145286739Y-85625696D01*
X145345635Y-85405892D01*
X145365468Y-85179200D01*
X145345635Y-84952508D01*
X145334790Y-84912034D01*
X145336453Y-84842184D01*
X145366882Y-84792262D01*
X155672327Y-74486819D01*
X155733650Y-74453334D01*
X155760008Y-74450500D01*
X157944405Y-74450500D01*
X158011444Y-74470185D01*
G37*
%TD.AperFunction*%
%TA.AperFunction,Conductor*%
G36*
X142387703Y-90834151D02*
G01*
X142387704Y-90834150D01*
X142441393Y-90766828D01*
X142441400Y-90766817D01*
X142570551Y-90543122D01*
X142621118Y-90494906D01*
X142689725Y-90481683D01*
X142754590Y-90507651D01*
X142795118Y-90564565D01*
X142797713Y-90573029D01*
X142833258Y-90705688D01*
X142833261Y-90705697D01*
X142929431Y-90911932D01*
X142929432Y-90911934D01*
X143059954Y-91098341D01*
X143220858Y-91259245D01*
X143220861Y-91259247D01*
X143407266Y-91389768D01*
X143465275Y-91416818D01*
X143517714Y-91462991D01*
X143536866Y-91530184D01*
X143516650Y-91597065D01*
X143465275Y-91641582D01*
X143407267Y-91668631D01*
X143407265Y-91668632D01*
X143220858Y-91799154D01*
X143059954Y-91960058D01*
X142929432Y-92146465D01*
X142929431Y-92146467D01*
X142833261Y-92352702D01*
X142833258Y-92352711D01*
X142774366Y-92572502D01*
X142774364Y-92572513D01*
X142754532Y-92799198D01*
X142754532Y-92799201D01*
X142774364Y-93025886D01*
X142774366Y-93025897D01*
X142805638Y-93142607D01*
X142803975Y-93212457D01*
X142764812Y-93270319D01*
X142700583Y-93297823D01*
X142685863Y-93298700D01*
X141666729Y-93298700D01*
X141541061Y-93323697D01*
X141541051Y-93323700D01*
X141492020Y-93344010D01*
X141422681Y-93372730D01*
X141422663Y-93372740D01*
X141316132Y-93443921D01*
X141316125Y-93443927D01*
X140007618Y-94752434D01*
X139946295Y-94785919D01*
X139879675Y-94782035D01*
X139856064Y-94773929D01*
X139690876Y-94746364D01*
X139627991Y-94715913D01*
X139591551Y-94656298D01*
X139593127Y-94586446D01*
X139632217Y-94528535D01*
X139663834Y-94509494D01*
X139721280Y-94485699D01*
X139721280Y-94485698D01*
X139721292Y-94485694D01*
X139934208Y-94362767D01*
X140129256Y-94213101D01*
X140303101Y-94039256D01*
X140452767Y-93844208D01*
X140575694Y-93631292D01*
X140669778Y-93404153D01*
X140733409Y-93166677D01*
X140765500Y-92922927D01*
X140765500Y-92677073D01*
X140733409Y-92433323D01*
X140669778Y-92195847D01*
X140575694Y-91968708D01*
X140452767Y-91755792D01*
X140412672Y-91703539D01*
X140387478Y-91638370D01*
X140401516Y-91569925D01*
X140450330Y-91519936D01*
X140518422Y-91504272D01*
X140543790Y-91508873D01*
X140543817Y-91508759D01*
X140546365Y-91509340D01*
X140547613Y-91509567D01*
X140548340Y-91509791D01*
X140548343Y-91509792D01*
X140815101Y-91549999D01*
X140815110Y-91550000D01*
X141084890Y-91550000D01*
X141084898Y-91549999D01*
X141351656Y-91509792D01*
X141351662Y-91509790D01*
X141609461Y-91430269D01*
X141852521Y-91313218D01*
X142035150Y-91188702D01*
X141312294Y-90465846D01*
X141328942Y-90458951D01*
X141459970Y-90371401D01*
X141571401Y-90259970D01*
X141658951Y-90128942D01*
X141665846Y-90112294D01*
X142387703Y-90834151D01*
G37*
%TD.AperFunction*%
%TA.AperFunction,Conductor*%
G36*
X149477726Y-88614973D02*
G01*
X149523171Y-88624961D01*
X149562465Y-88658939D01*
X149644527Y-88767606D01*
X149787082Y-88897563D01*
X149823363Y-88957275D01*
X149821602Y-89027122D01*
X149787082Y-89080837D01*
X149644526Y-89210794D01*
X149597353Y-89273261D01*
X149541244Y-89314896D01*
X149471532Y-89319587D01*
X149410350Y-89285844D01*
X149399447Y-89273261D01*
X149352273Y-89210794D01*
X149194699Y-89067145D01*
X149176070Y-89055611D01*
X149129435Y-89003583D01*
X149123490Y-88967842D01*
X148544848Y-88389200D01*
X148551061Y-88389200D01*
X148652794Y-88361941D01*
X148744006Y-88309280D01*
X148818480Y-88234806D01*
X148871141Y-88143594D01*
X148898400Y-88041861D01*
X148898400Y-88035647D01*
X149477726Y-88614973D01*
G37*
%TD.AperFunction*%
%TA.AperFunction,Conductor*%
G36*
X148098400Y-88041861D02*
G01*
X148125659Y-88143594D01*
X148178320Y-88234806D01*
X148252794Y-88309280D01*
X148344006Y-88361941D01*
X148445739Y-88389200D01*
X148451953Y-88389200D01*
X147873100Y-88968051D01*
X147866795Y-89004758D01*
X147820728Y-89055612D01*
X147802098Y-89067147D01*
X147802097Y-89067148D01*
X147765057Y-89100914D01*
X147702252Y-89131531D01*
X147632865Y-89123332D01*
X147582254Y-89083587D01*
X147505947Y-88981655D01*
X147487495Y-88967842D01*
X147452828Y-88941890D01*
X147404190Y-88905479D01*
X147362320Y-88849545D01*
X147357336Y-88779854D01*
X147379546Y-88731489D01*
X147434336Y-88658936D01*
X147490444Y-88617303D01*
X147521121Y-88612925D01*
X148098400Y-88035646D01*
X148098400Y-88041861D01*
G37*
%TD.AperFunction*%
%TA.AperFunction,Conductor*%
G36*
X158097865Y-57782548D02*
G01*
X158142382Y-57833925D01*
X158169429Y-57891928D01*
X158169432Y-57891934D01*
X158299954Y-58078341D01*
X158460858Y-58239245D01*
X158460861Y-58239247D01*
X158647266Y-58369768D01*
X158705275Y-58396818D01*
X158757714Y-58442991D01*
X158776866Y-58510184D01*
X158756650Y-58577065D01*
X158705275Y-58621582D01*
X158647267Y-58648631D01*
X158647265Y-58648632D01*
X158460858Y-58779154D01*
X158299954Y-58940058D01*
X158169432Y-59126465D01*
X158169431Y-59126467D01*
X158073261Y-59332702D01*
X158073258Y-59332711D01*
X158014366Y-59552502D01*
X158014364Y-59552513D01*
X157994532Y-59779198D01*
X157994532Y-59779201D01*
X158014364Y-60005886D01*
X158014366Y-60005897D01*
X158073258Y-60225688D01*
X158073261Y-60225697D01*
X158169431Y-60431932D01*
X158169432Y-60431934D01*
X158299954Y-60618341D01*
X158460858Y-60779245D01*
X158460861Y-60779247D01*
X158647266Y-60909768D01*
X158705275Y-60936818D01*
X158757714Y-60982991D01*
X158776866Y-61050184D01*
X158756650Y-61117065D01*
X158705275Y-61161582D01*
X158647267Y-61188631D01*
X158647265Y-61188632D01*
X158460858Y-61319154D01*
X158299954Y-61480058D01*
X158169432Y-61666465D01*
X158169431Y-61666467D01*
X158073261Y-61872702D01*
X158073258Y-61872711D01*
X158014366Y-62092502D01*
X158014364Y-62092513D01*
X157994532Y-62319198D01*
X157994532Y-62319201D01*
X158014364Y-62545886D01*
X158014366Y-62545897D01*
X158073258Y-62765688D01*
X158073261Y-62765697D01*
X158169431Y-62971932D01*
X158169432Y-62971934D01*
X158299954Y-63158341D01*
X158460858Y-63319245D01*
X158460861Y-63319247D01*
X158647266Y-63449768D01*
X158705275Y-63476818D01*
X158757714Y-63522991D01*
X158776866Y-63590184D01*
X158756650Y-63657065D01*
X158705275Y-63701582D01*
X158647267Y-63728631D01*
X158647265Y-63728632D01*
X158460858Y-63859154D01*
X158299954Y-64020058D01*
X158169432Y-64206465D01*
X158169431Y-64206467D01*
X158073261Y-64412702D01*
X158073258Y-64412711D01*
X158014366Y-64632502D01*
X158014364Y-64632513D01*
X157994532Y-64859198D01*
X157994532Y-64859201D01*
X158014364Y-65085886D01*
X158014366Y-65085897D01*
X158073258Y-65305688D01*
X158073261Y-65305697D01*
X158169431Y-65511932D01*
X158169432Y-65511934D01*
X158299954Y-65698341D01*
X158460858Y-65859245D01*
X158460861Y-65859247D01*
X158647266Y-65989768D01*
X158705275Y-66016818D01*
X158757714Y-66062991D01*
X158776866Y-66130184D01*
X158756650Y-66197065D01*
X158705275Y-66241582D01*
X158647267Y-66268631D01*
X158647265Y-66268632D01*
X158460858Y-66399154D01*
X158299954Y-66560058D01*
X158169432Y-66746465D01*
X158169431Y-66746467D01*
X158073261Y-66952702D01*
X158073258Y-66952711D01*
X158014366Y-67172502D01*
X158014364Y-67172513D01*
X157994532Y-67399198D01*
X157994532Y-67399201D01*
X158014364Y-67625886D01*
X158014366Y-67625897D01*
X158073258Y-67845688D01*
X158073261Y-67845697D01*
X158169431Y-68051932D01*
X158169432Y-68051934D01*
X158299954Y-68238341D01*
X158460858Y-68399245D01*
X158460861Y-68399247D01*
X158647266Y-68529768D01*
X158659548Y-68535495D01*
X158705275Y-68556818D01*
X158757714Y-68602991D01*
X158776866Y-68670184D01*
X158756650Y-68737065D01*
X158705275Y-68781582D01*
X158647267Y-68808631D01*
X158647265Y-68808632D01*
X158460858Y-68939154D01*
X158299954Y-69100058D01*
X158169432Y-69286465D01*
X158169431Y-69286467D01*
X158073261Y-69492702D01*
X158073258Y-69492711D01*
X158014366Y-69712502D01*
X158014364Y-69712513D01*
X157994532Y-69939198D01*
X157994532Y-69939201D01*
X158014364Y-70165886D01*
X158014366Y-70165897D01*
X158073258Y-70385688D01*
X158073260Y-70385692D01*
X158073261Y-70385696D01*
X158107872Y-70459919D01*
X158114016Y-70473095D01*
X158124508Y-70542173D01*
X158095988Y-70605957D01*
X158037512Y-70644196D01*
X158001634Y-70649500D01*
X155335129Y-70649500D01*
X155209461Y-70674497D01*
X155209455Y-70674499D01*
X155091070Y-70723535D01*
X154984531Y-70794722D01*
X154984524Y-70794728D01*
X145576208Y-80203044D01*
X145514885Y-80236529D01*
X145445193Y-80231545D01*
X145389260Y-80189673D01*
X145364843Y-80124209D01*
X145364998Y-80104561D01*
X145365468Y-80099200D01*
X145345635Y-79872508D01*
X145286739Y-79652704D01*
X145190568Y-79446466D01*
X145060047Y-79260061D01*
X145060045Y-79260058D01*
X144899141Y-79099154D01*
X144712734Y-78968632D01*
X144712728Y-78968629D01*
X144654725Y-78941582D01*
X144602285Y-78895410D01*
X144583133Y-78828217D01*
X144603348Y-78761335D01*
X144654725Y-78716818D01*
X144712734Y-78689768D01*
X144899139Y-78559247D01*
X145060047Y-78398339D01*
X145190568Y-78211934D01*
X145286739Y-78005696D01*
X145345635Y-77785892D01*
X145365468Y-77559200D01*
X145345635Y-77332508D01*
X145286739Y-77112704D01*
X145190568Y-76906466D01*
X145060047Y-76720061D01*
X145060045Y-76720058D01*
X144899141Y-76559154D01*
X144712734Y-76428632D01*
X144712728Y-76428629D01*
X144654725Y-76401582D01*
X144602285Y-76355410D01*
X144583133Y-76288217D01*
X144603348Y-76221335D01*
X144654725Y-76176818D01*
X144712734Y-76149768D01*
X144899139Y-76019247D01*
X145060047Y-75858339D01*
X145190568Y-75671934D01*
X145286739Y-75465696D01*
X145345635Y-75245892D01*
X145365468Y-75019200D01*
X145345635Y-74792508D01*
X145300916Y-74625615D01*
X145286741Y-74572711D01*
X145286738Y-74572702D01*
X145190568Y-74366467D01*
X145190567Y-74366465D01*
X145060045Y-74180058D01*
X144899141Y-74019154D01*
X144712734Y-73888632D01*
X144712728Y-73888629D01*
X144654725Y-73861582D01*
X144602285Y-73815410D01*
X144583133Y-73748217D01*
X144603348Y-73681335D01*
X144654725Y-73636818D01*
X144712734Y-73609768D01*
X144899139Y-73479247D01*
X145060047Y-73318339D01*
X145190568Y-73131934D01*
X145286739Y-72925696D01*
X145345635Y-72705892D01*
X145365468Y-72479200D01*
X145345635Y-72252508D01*
X145286739Y-72032704D01*
X145190568Y-71826466D01*
X145060047Y-71640061D01*
X145060045Y-71640058D01*
X144899141Y-71479154D01*
X144712734Y-71348632D01*
X144712728Y-71348629D01*
X144654725Y-71321582D01*
X144602285Y-71275410D01*
X144583133Y-71208217D01*
X144603348Y-71141335D01*
X144654725Y-71096818D01*
X144712734Y-71069768D01*
X144899139Y-70939247D01*
X145060047Y-70778339D01*
X145190568Y-70591934D01*
X145286739Y-70385696D01*
X145345635Y-70165892D01*
X145365468Y-69939200D01*
X145345635Y-69712508D01*
X145286739Y-69492704D01*
X145190568Y-69286466D01*
X145060047Y-69100061D01*
X145060045Y-69100058D01*
X144899141Y-68939154D01*
X144712735Y-68808633D01*
X144712736Y-68808633D01*
X144712734Y-68808632D01*
X144654132Y-68781305D01*
X144601694Y-68735133D01*
X144582543Y-68667939D01*
X144602759Y-68601058D01*
X144654135Y-68556541D01*
X144712482Y-68529333D01*
X144785471Y-68478224D01*
X144230234Y-67922987D01*
X144272292Y-67911718D01*
X144397708Y-67839310D01*
X144500110Y-67736908D01*
X144572518Y-67611492D01*
X144583787Y-67569434D01*
X145139024Y-68124671D01*
X145190136Y-68051678D01*
X145286264Y-67845531D01*
X145286269Y-67845517D01*
X145345139Y-67625810D01*
X145345141Y-67625799D01*
X145364966Y-67399202D01*
X145364966Y-67399197D01*
X145345141Y-67172600D01*
X145345139Y-67172589D01*
X145286269Y-66952882D01*
X145286264Y-66952868D01*
X145190136Y-66746721D01*
X145190132Y-66746713D01*
X145139025Y-66673726D01*
X144583787Y-67228964D01*
X144572518Y-67186908D01*
X144500110Y-67061492D01*
X144397708Y-66959090D01*
X144272292Y-66886682D01*
X144230234Y-66875412D01*
X144785472Y-66320174D01*
X144712480Y-66269064D01*
X144654134Y-66241857D01*
X144601695Y-66195684D01*
X144582543Y-66128491D01*
X144602759Y-66061610D01*
X144654134Y-66017093D01*
X144712734Y-65989768D01*
X144899139Y-65859247D01*
X145060047Y-65698339D01*
X145190568Y-65511934D01*
X145286739Y-65305696D01*
X145345635Y-65085892D01*
X145365468Y-64859200D01*
X145345635Y-64632508D01*
X145286739Y-64412704D01*
X145190568Y-64206466D01*
X145060047Y-64020061D01*
X145060045Y-64020058D01*
X144899141Y-63859154D01*
X144712734Y-63728632D01*
X144712728Y-63728629D01*
X144654725Y-63701582D01*
X144602285Y-63655410D01*
X144583133Y-63588217D01*
X144603348Y-63521335D01*
X144654725Y-63476818D01*
X144712734Y-63449768D01*
X144899139Y-63319247D01*
X145060047Y-63158339D01*
X145190568Y-62971934D01*
X145286739Y-62765696D01*
X145345635Y-62545892D01*
X145365468Y-62319200D01*
X145345635Y-62092508D01*
X145286739Y-61872704D01*
X145190568Y-61666466D01*
X145060047Y-61480061D01*
X145060045Y-61480058D01*
X144899141Y-61319154D01*
X144712734Y-61188632D01*
X144712728Y-61188629D01*
X144654725Y-61161582D01*
X144602285Y-61115410D01*
X144583133Y-61048217D01*
X144603348Y-60981335D01*
X144654725Y-60936818D01*
X144712734Y-60909768D01*
X144899139Y-60779247D01*
X145060047Y-60618339D01*
X145190568Y-60431934D01*
X145286739Y-60225696D01*
X145345635Y-60005892D01*
X145365468Y-59779200D01*
X145345635Y-59552508D01*
X145286739Y-59332704D01*
X145190568Y-59126466D01*
X145060047Y-58940061D01*
X145060045Y-58940058D01*
X144899141Y-58779154D01*
X144712734Y-58648632D01*
X144712728Y-58648629D01*
X144654725Y-58621582D01*
X144602285Y-58575410D01*
X144583133Y-58508217D01*
X144603348Y-58441335D01*
X144654725Y-58396818D01*
X144712734Y-58369768D01*
X144899139Y-58239247D01*
X145060047Y-58078339D01*
X145190568Y-57891934D01*
X145217618Y-57833924D01*
X145263790Y-57781485D01*
X145330983Y-57762333D01*
X145397865Y-57782548D01*
X145442382Y-57833925D01*
X145469429Y-57891928D01*
X145469432Y-57891934D01*
X145599954Y-58078341D01*
X145760858Y-58239245D01*
X145760861Y-58239247D01*
X145947266Y-58369768D01*
X146153504Y-58465939D01*
X146373308Y-58524835D01*
X146535230Y-58539001D01*
X146599998Y-58544668D01*
X146600000Y-58544668D01*
X146600002Y-58544668D01*
X146656673Y-58539709D01*
X146826692Y-58524835D01*
X147046496Y-58465939D01*
X147252734Y-58369768D01*
X147439139Y-58239247D01*
X147600047Y-58078339D01*
X147730568Y-57891934D01*
X147757618Y-57833924D01*
X147803790Y-57781485D01*
X147870983Y-57762333D01*
X147937865Y-57782548D01*
X147982382Y-57833925D01*
X148009429Y-57891928D01*
X148009432Y-57891934D01*
X148139954Y-58078341D01*
X148300858Y-58239245D01*
X148300861Y-58239247D01*
X148487266Y-58369768D01*
X148693504Y-58465939D01*
X148913308Y-58524835D01*
X149075230Y-58539001D01*
X149139998Y-58544668D01*
X149140000Y-58544668D01*
X149140002Y-58544668D01*
X149196673Y-58539709D01*
X149366692Y-58524835D01*
X149586496Y-58465939D01*
X149792734Y-58369768D01*
X149979139Y-58239247D01*
X150140047Y-58078339D01*
X150270568Y-57891934D01*
X150297618Y-57833924D01*
X150343790Y-57781485D01*
X150410983Y-57762333D01*
X150477865Y-57782548D01*
X150522382Y-57833925D01*
X150549429Y-57891928D01*
X150549432Y-57891934D01*
X150679954Y-58078341D01*
X150840858Y-58239245D01*
X150840861Y-58239247D01*
X151027266Y-58369768D01*
X151233504Y-58465939D01*
X151453308Y-58524835D01*
X151615230Y-58539001D01*
X151679998Y-58544668D01*
X151680000Y-58544668D01*
X151680002Y-58544668D01*
X151736673Y-58539709D01*
X151906692Y-58524835D01*
X152126496Y-58465939D01*
X152332734Y-58369768D01*
X152519139Y-58239247D01*
X152680047Y-58078339D01*
X152810568Y-57891934D01*
X152837618Y-57833924D01*
X152883790Y-57781485D01*
X152950983Y-57762333D01*
X153017865Y-57782548D01*
X153062382Y-57833925D01*
X153089429Y-57891928D01*
X153089432Y-57891934D01*
X153219954Y-58078341D01*
X153380858Y-58239245D01*
X153380861Y-58239247D01*
X153567266Y-58369768D01*
X153773504Y-58465939D01*
X153993308Y-58524835D01*
X154155230Y-58539001D01*
X154219998Y-58544668D01*
X154220000Y-58544668D01*
X154220002Y-58544668D01*
X154276673Y-58539709D01*
X154446692Y-58524835D01*
X154666496Y-58465939D01*
X154872734Y-58369768D01*
X155059139Y-58239247D01*
X155220047Y-58078339D01*
X155350568Y-57891934D01*
X155377618Y-57833924D01*
X155423790Y-57781485D01*
X155490983Y-57762333D01*
X155557865Y-57782548D01*
X155602382Y-57833925D01*
X155629429Y-57891928D01*
X155629432Y-57891934D01*
X155759954Y-58078341D01*
X155920858Y-58239245D01*
X155920861Y-58239247D01*
X156107266Y-58369768D01*
X156313504Y-58465939D01*
X156533308Y-58524835D01*
X156695230Y-58539001D01*
X156759998Y-58544668D01*
X156760000Y-58544668D01*
X156760002Y-58544668D01*
X156816673Y-58539709D01*
X156986692Y-58524835D01*
X157206496Y-58465939D01*
X157412734Y-58369768D01*
X157599139Y-58239247D01*
X157760047Y-58078339D01*
X157890568Y-57891934D01*
X157917618Y-57833924D01*
X157963790Y-57781485D01*
X158030983Y-57762333D01*
X158097865Y-57782548D01*
G37*
%TD.AperFunction*%
%TD*%
M02*
